<svg width="32" height="32" viewBox="0 0 32 32" fill="none" xmlns="http://www.w3.org/2000/svg">
<path d="M30.7409 12.0033C30.7458 12.0914 30.7394 12.181 30.7173 12.27L28.7434 20.1653C28.6439 20.5631 28.2874 20.8428 27.8776 20.8449L16.0346 20.9047C16.033 20.9047 16.0316 20.9047 16.03 20.9047H4.18692C3.77492 20.9047 3.41593 20.6241 3.3164 20.2243L1.34256 12.2991C1.31984 12.2077 1.31326 12.1156 1.319 12.0252C0.555424 11.7847 0 11.0701 0 10.2281C0 9.18914 0.845159 8.34398 1.88411 8.34398C2.92307 8.34398 3.76822 9.18914 3.76822 10.2281C3.76822 10.8132 3.50014 11.3367 3.08037 11.6825L5.55161 14.1724C6.17618 14.8018 7.04287 15.1626 7.92954 15.1626C8.97794 15.1626 9.97754 14.6647 10.607 13.8305L14.6683 8.44925C14.3271 8.10832 14.1159 7.63723 14.1159 7.11782C14.1159 6.07886 14.961 5.2337 16 5.2337C17.039 5.2337 17.8841 6.07886 17.8841 7.11782C17.8841 7.62168 17.6841 8.07901 17.3607 8.41743C17.3618 8.41887 17.3631 8.42007 17.3642 8.42162L21.3961 13.8177C22.0253 14.6599 23.0285 15.1627 24.0799 15.1627C24.9747 15.1627 25.8162 14.8142 26.4489 14.1814L28.9357 11.6946C28.507 11.3489 28.2318 10.8204 28.2318 10.2281C28.2318 9.18914 29.0769 8.34398 30.1159 8.34398C31.1548 8.34398 32 9.18914 32 10.2281C32 11.0477 31.473 11.7447 30.7409 12.0033ZM28.5508 23.7159C28.5508 23.2205 28.1491 22.8188 27.6536 22.8188H4.44615C3.95065 22.8188 3.54895 23.2205 3.54895 23.7159V25.8692C3.54895 26.3647 3.95065 26.7664 4.44615 26.7664H27.6536C28.1491 26.7664 28.5508 26.3647 28.5508 25.8692V23.7159Z" fill="#191919"/>
</svg>
