<?xml version="1.0" encoding="utf-8"?>
<!-- Svg Vector Icons : http://www.onlinewebfonts.com/icon -->
<!DOCTYPE svg PUBLIC "-//W3C//DTD SVG 1.1//EN" "http://www.w3.org/Graphics/SVG/1.1/DTD/svg11.dtd">
<svg version="1.1" xmlns="http://www.w3.org/2000/svg" xmlns:xlink="http://www.w3.org/1999/xlink" x="0px" y="0px" viewBox="0 0 1000 1000" enable-background="new 0 0 1000 1000" xml:space="preserve">
<metadata> Svg Vector Icons : http://www.onlinewebfonts.com/icon </metadata>
<g><g transform="translate(0.000000,512.000000) scale(0.100000,-0.100000)"><path d="M4530.1,5007.9C3375.4,4889,2341.7,4400,1530.4,3588.6C751.6,2809.9,287.5,1860.5,124.4,723.1c-32.6-226.3-32.6-982,0-1208.3c163-1137.4,629.1-2086.8,1405.9-2865.5c778.7-776.8,1728.1-1242.9,2865.5-1405.9c226.3-32.6,982-32.6,1208.3,0c1147,163,2100.2,634.9,2880.8,1425.1C9259.9-2549,9714.4-1616.8,9875.5-485.2c32.6,226.3,32.6,982,0,1208.3c-163,1137.4-629.1,2086.8-1405.9,2865.5c-759.5,759.5-1687.8,1223.7-2779.2,1392.5C5448.8,5017.5,4775.6,5034.8,4530.1,5007.9z M6066.4,2625.8l44.1-23L5182.2,305C4672-960.8,4252-1998.5,4246.2-2002.3c-3.8-3.8-67.1,17.3-140,46c-82.5,34.5-130.4,65.2-128.5,82.5c3.8,15.3,337.6,851.6,744.2,1858.5c408.5,1006.9,822.8,2036.9,924.5,2286.3l182.2,454.6l95.9-38.4C5978.2,2666.1,6041.5,2639.2,6066.4,2625.8z M7480,1772.3c218.7-107.4,320.3-297.3,320.3-596.5c0-280-21.1-329.9-571.6-1363.7l-341.4-642.5l437.3-5.8l437.3-3.8v-182.2v-182.2h-709.7h-709.7v126.6v124.7l391.3,751.9c397,761.4,506.3,995.4,558.1,1194.9c53.7,203.3,30.7,385.5-59.5,469.9c-40.3,38.4-69.1,46-170.7,46c-141.9,0-186-28.8-245.5-163c-28.8-63.3-42.2-141.9-47.9-291.5l-9.6-207.1h-176.5H6404l-21.1,120.8c-74.8,435.4,63.3,719.2,416.2,851.6c49.9,17.3,143.8,23,312.6,19.2C7340,1835.6,7359.1,1831.7,7480,1772.3z M3139.5,483.4V-857.3l178.4-5.8l176.5-5.7l5.8-166.9l5.8-168.8H2919h-585v172.6v172.6h172.6h172.6v1030v1028l-42.2-36.4c-24.9-21.1-107.4-94-184.1-161.1l-140-122.8l-94,103.6c-51.8,57.5-94,113.2-95.9,122.7c0,7.7,151.5,174.5,337.6,368.3l337.6,352.9h170.7h170.7V483.4z"/></g></g>
</svg>