<svg width="3720" height="998" viewBox="0 0 3720 998" fill="none" xmlns="http://www.w3.org/2000/svg">
<path d="M701.8 188.096L412.064 11.736C399.211 3.912 384.715 0 370.217 0C355.719 0 341.223 3.912 328.37 11.736L38.6349 188.096C26.5987 195.423 16.9171 205.63 10.2548 217.532L38.7421 537.324H701.691L730.18 217.538C723.519 205.634 713.836 195.423 701.8 188.096Z" fill="#7CCEBC"/>
<path d="M38.7438 685.015C14.689 670.426 0 644.334 0 616.202V256.843C0 242.848 3.64106 229.352 10.2566 217.532L370.217 436.166L380.511 774.473L370.217 872.419C355.76 872.419 341.305 868.53 328.479 860.751L38.7438 685.015Z" fill="#24AE8F"/>
<path d="M701.69 685.015C725.745 670.425 740.434 644.334 740.434 616.201V256.843C740.434 242.848 736.797 229.358 730.18 217.538L370.217 436.165V872.419C384.674 872.419 399.129 868.53 411.955 860.751L701.69 685.015Z" fill="#50BEA5"/>
<path d="M499.038 450.701H917.544C953.103 450.701 981.93 479.527 981.93 515.086V933.592C981.93 945.32 978.793 956.314 973.316 965.785L917.544 980.437H513.706C478.147 980.437 449.321 951.61 449.321 916.051V472.676L466.803 459.339C476.282 453.847 487.293 450.701 499.038 450.701Z" fill="#ECEAEC"/>
<path d="M198.145 595.969C213.41 589.464 216.465 562.316 204.968 535.333C193.47 508.349 171.774 491.747 156.509 498.251C141.243 504.756 138.188 531.904 149.686 558.888C161.183 585.871 182.879 602.473 198.145 595.969Z" fill="#7CCEBC"/>
<path d="M370.601 242.025C399.881 242.025 423.617 227.053 423.617 208.583C423.617 190.114 399.881 175.141 370.601 175.141C341.322 175.141 317.586 190.114 317.586 208.583C317.586 227.053 341.322 242.025 370.601 242.025Z" fill="white"/>
<path d="M535.287 242.025C564.567 242.025 588.303 227.053 588.303 208.583C588.303 190.114 564.567 175.141 535.287 175.141C506.008 175.141 482.272 190.114 482.272 208.583C482.272 227.053 506.008 242.025 535.287 242.025Z" fill="white"/>
<path d="M205.917 242.025C235.197 242.025 258.933 227.053 258.933 208.583C258.933 190.114 235.197 175.141 205.917 175.141C176.637 175.141 152.901 190.114 152.901 208.583C152.901 227.053 176.637 242.025 205.917 242.025Z" fill="white"/>
<path d="M708.29 772.629C734.96 772.629 756.579 751.009 756.579 724.34C756.579 697.671 734.96 676.051 708.29 676.051C681.621 676.051 660.001 697.671 660.001 724.34C660.001 751.009 681.621 772.629 708.29 772.629Z" fill="#24AE8F"/>
<path d="M563.423 627.762C590.093 627.762 611.712 606.142 611.712 579.473C611.712 552.804 590.093 531.184 563.423 531.184C536.754 531.184 515.135 552.804 515.135 579.473C515.135 606.142 536.754 627.762 563.423 627.762Z" fill="#24AE8F"/>
<path d="M853.159 917.498C879.828 917.498 901.448 895.878 901.448 869.209C901.448 842.539 879.828 820.92 853.159 820.92C826.49 820.92 804.87 842.539 804.87 869.209C804.87 895.878 826.49 917.498 853.159 917.498Z" fill="#24AE8F"/>
<path d="M563.375 965.786C510.036 965.786 466.797 922.546 466.797 869.208L466.803 459.341C443.21 470.726 434.653 491.337 434.653 515.088V933.594C434.653 969.152 463.48 997.979 499.039 997.979H917.545C941.317 997.979 962.165 984.95 973.318 965.786H563.375Z" fill="#DAD8DB"/>
<path d="M1383.45 634.855H1459.21C1501.91 634.855 1537.03 621.548 1564.58 594.933C1592.13 568.318 1605.9 529.772 1605.9 479.296C1605.9 428.819 1592.13 390.273 1564.58 363.658C1537.03 336.585 1502.14 323.048 1459.9 323.048H1383.45V634.855ZM1462.65 722.96H1288.41V234.943H1463.34C1534.51 234.943 1592.36 256.74 1636.9 300.333C1681.89 343.927 1704.39 403.581 1704.39 479.296C1704.39 554.552 1681.89 613.976 1636.9 657.57C1591.9 701.163 1533.82 722.96 1462.65 722.96Z" fill="#24AE8F"/>
<path d="M1871.49 722.96H1779.89V384.308H1871.49V722.96ZM1768.88 273.489C1768.88 257.887 1774.39 244.58 1785.4 233.567C1796.42 222.095 1809.74 216.359 1825.35 216.359C1840.96 216.359 1854.28 221.865 1865.3 232.878C1876.31 243.891 1881.82 257.428 1881.82 273.489C1881.82 288.632 1876.31 301.71 1865.3 312.723C1854.28 323.736 1840.96 329.243 1825.35 329.243C1809.74 329.243 1796.42 323.736 1785.4 312.723C1774.39 301.71 1768.88 288.632 1768.88 273.489Z" fill="#24AE8F"/>
<path d="M2121.77 458.646C2097.43 458.646 2077 467.135 2060.47 484.114C2043.94 501.092 2035.68 524.266 2035.68 553.634C2035.68 583.002 2043.94 606.405 2060.47 623.842C2077.46 640.821 2098.12 649.31 2122.45 649.31C2144.03 649.31 2161.25 643.803 2174.11 632.79C2186.96 621.318 2195.69 607.781 2200.28 592.18L2280.86 619.024C2272.59 650.228 2254.69 677.072 2227.14 699.557C2199.59 722.042 2164.7 733.284 2122.45 733.284C2071.95 733.284 2029.48 716.306 1995.04 682.349C1961.07 647.933 1944.08 605.028 1944.08 553.634C1944.08 501.781 1960.84 458.876 1994.35 424.919C2028.33 390.962 2070.11 373.983 2119.7 373.983C2162.86 373.983 2198.21 385.226 2225.76 407.711C2253.31 429.737 2270.99 456.581 2278.79 488.244L2196.84 515.776C2185.82 477.69 2160.79 458.646 2121.77 458.646Z" fill="#24AE8F"/>
<path d="M2411.66 515.088H2563.18C2562.26 496.274 2555.37 480.443 2542.52 467.594C2530.12 454.746 2511.75 448.321 2487.42 448.321C2465.38 448.321 2447.47 455.205 2433.7 468.971C2419.92 482.737 2412.58 498.11 2411.66 515.088ZM2572.13 603.193L2648.58 625.907C2639.39 657.111 2621.26 682.808 2594.17 702.999C2567.54 723.189 2534.25 733.284 2494.31 733.284C2445.64 733.284 2404.31 716.994 2370.34 684.414C2336.36 651.375 2319.37 607.323 2319.37 552.257C2319.37 499.945 2335.9 457.269 2368.96 424.23C2402.02 390.732 2441.05 373.983 2486.04 373.983C2538.38 373.983 2579.25 389.585 2608.63 420.789C2638.48 451.992 2653.4 494.897 2653.4 549.504C2653.4 553.175 2653.17 557.305 2652.71 561.894C2652.71 566.482 2652.71 570.153 2652.71 572.907L2652.02 577.725H2409.59C2410.51 599.751 2419.24 618.106 2435.77 632.79C2452.29 647.474 2472.04 654.816 2494.99 654.816C2534.02 654.816 2559.73 637.608 2572.13 603.193Z" fill="#24AE8F"/>
<path d="M3085.09 733.973C3030.91 733.973 2986.14 717.912 2950.79 685.791C2915.43 653.21 2897.76 608.011 2897.76 550.192V234.943H2992.8V543.309C2992.8 574.972 3000.83 599.292 3016.9 616.271C3033.43 632.79 3056.16 641.05 3085.09 641.05C3114.47 641.05 3137.2 632.79 3153.27 616.271C3169.8 599.292 3178.06 574.972 3178.06 543.309V234.943H3273.11V550.192C3273.11 608.011 3255.43 653.21 3220.07 685.791C3184.72 717.912 3139.72 733.973 3085.09 733.973Z" fill="#24AE8F"/>
<path d="M3461.45 853.74H3369.85V384.308H3458.7V425.607C3466.96 411.841 3480.28 400.369 3498.64 391.191C3517.01 381.555 3538.36 376.736 3562.69 376.736C3610.9 376.736 3649.01 393.256 3677.02 426.295C3705.03 458.876 3719.03 501.092 3719.03 552.945C3719.03 604.799 3704.11 647.474 3674.26 680.972C3644.88 714.47 3606.54 731.219 3559.25 731.219C3514.25 731.219 3481.65 717.453 3461.45 689.92V853.74ZM3604.7 623.842C3620.78 606.405 3628.81 583.002 3628.81 553.634C3628.81 524.266 3620.78 501.092 3604.7 484.114C3589.09 467.135 3569.12 458.646 3544.79 458.646C3520.45 458.646 3500.25 467.365 3484.18 484.802C3468.11 501.781 3460.08 524.725 3460.08 553.634C3460.08 582.543 3468.11 605.716 3484.18 623.154C3500.25 640.591 3520.45 649.31 3544.79 649.31C3569.12 649.31 3589.09 640.821 3604.7 623.842Z" fill="#24AE8F"/>
</svg>
