<svg width="3583" height="858" viewBox="0 0 3583 858" fill="none" xmlns="http://www.w3.org/2000/svg">
<path d="M857.647 428.819C857.647 665.65 665.658 857.638 428.828 857.638C283.135 857.638 154.419 784.984 76.9166 673.929V673.913C58.1709 647.046 42.4369 617.974 30.167 587.117C23.9189 571.417 18.5805 555.262 14.2052 538.704C4.94536 503.626 0.00891113 466.8 0.00891113 428.819C0.00891113 403.685 2.17981 379.041 6.32729 355.079C6.67738 353.084 7.04423 351.089 7.41274 349.111C9.81145 336.352 12.768 323.784 16.2873 311.462C22.6057 289.198 30.6745 267.67 40.3531 247.033C108.736 101.079 256.985 0 428.828 0C665.658 0 857.647 191.989 857.647 428.819Z" fill="#24AE8F"/>
<path d="M853.989 482.098C853.989 487.35 851.451 492.599 846.376 495.698L629.376 628.492C622.621 632.622 614.989 634.688 607.357 634.688C599.726 634.688 592.113 632.622 585.357 628.492L368.358 495.698C363.282 492.601 360.745 487.35 360.745 482.098C360.745 476.865 363.282 471.633 368.358 468.517L585.357 335.724C592.113 331.593 599.727 329.528 607.357 329.528C614.989 329.528 622.621 331.593 629.376 335.724L846.376 468.517C851.451 471.631 853.989 476.864 853.989 482.098Z" fill="#D6DFE8"/>
<path d="M853.989 206.446H360.741V482.098H853.989V206.446Z" fill="#D6DFE8"/>
<path d="M607.357 394.467V634.688C599.726 634.688 592.113 632.622 585.357 628.491L368.358 495.698C363.282 492.601 360.745 487.35 360.745 482.098V206.446L584.6 352.449C598.796 361.711 607.357 377.515 607.357 394.467Z" fill="#B6C5D3"/>
<path d="M846.371 192.855L629.368 60.0632C615.864 51.7984 598.867 51.7984 585.36 60.0632L368.358 192.855C358.2 199.069 358.2 213.823 368.358 220.038L585.36 352.829C598.865 361.094 615.862 361.094 629.368 352.829L846.369 220.038C856.527 213.823 856.527 199.071 846.371 192.855Z" fill="#EAF1F9"/>
<path d="M607.358 240.174C634.704 240.174 656.873 227.174 656.873 211.137C656.873 195.1 634.704 182.099 607.358 182.099C580.011 182.099 557.842 195.1 557.842 211.137C557.842 227.174 580.011 240.174 607.358 240.174Z" fill="#574D70"/>
<path d="M763.76 432.086C769.186 418.987 766.345 405.369 757.414 401.669C748.483 397.97 736.844 405.59 731.418 418.69C725.992 431.789 728.833 445.407 737.764 449.107C746.695 452.806 758.334 445.186 763.76 432.086Z" fill="#574D70"/>
<path d="M824.278 469.191C829.704 456.091 826.862 442.473 817.931 438.774C809.001 435.074 797.362 442.695 791.936 455.794C786.51 468.893 789.351 482.511 798.282 486.211C807.213 489.91 818.852 482.29 824.278 469.191Z" fill="#574D70"/>
<path d="M824.267 322.527C829.693 309.428 826.852 295.809 817.921 292.11C808.99 288.411 797.352 296.031 791.926 309.13C786.5 322.23 789.341 335.848 798.272 339.547C807.203 343.246 818.841 335.626 824.267 322.527Z" fill="#574D70"/>
<path d="M703.229 541.642C708.655 528.543 705.813 514.925 696.883 511.226C687.952 507.526 676.313 515.146 670.887 528.246C665.461 541.345 668.302 554.963 677.233 558.663C686.164 562.362 697.803 554.742 703.229 541.642Z" fill="#574D70"/>
<path d="M703.224 392.863C708.65 379.764 705.809 366.146 696.878 362.447C687.947 358.747 676.309 366.367 670.883 379.467C665.457 392.566 668.298 406.184 677.229 409.884C686.16 413.583 697.798 405.963 703.224 392.863Z" fill="#574D70"/>
<path d="M523.349 530.344C526.714 544.116 537.053 553.421 546.443 551.127C555.833 548.833 560.718 535.809 557.354 522.037C553.99 508.265 543.65 498.96 534.26 501.254C524.87 503.548 519.985 516.572 523.349 530.344Z" fill="#574D70"/>
<path d="M442.917 587.115C442.917 592.367 440.379 597.616 435.304 600.715L218.305 733.508C211.549 737.639 203.917 739.705 196.286 739.705C188.654 739.705 181.041 737.639 174.285 733.508L76.9166 673.929V673.913C58.1709 647.046 42.4369 617.974 30.167 587.117C23.9189 571.416 18.5805 555.262 14.2052 538.704L174.285 440.741C181.041 436.61 188.656 434.544 196.286 434.544C203.916 434.544 211.549 436.61 218.305 440.741L435.304 573.534C440.379 576.648 442.917 581.881 442.917 587.115Z" fill="#D6DFE8"/>
<path d="M442.917 311.463V587.115H30.167C10.7026 538.141 0.00891113 484.723 0.00891113 428.819C0.00891113 401.584 2.54665 374.945 7.41274 349.111C9.81145 336.351 12.768 323.783 16.2873 311.462H442.917V311.463Z" fill="#D6DFE8"/>
<path d="M196.286 499.479V739.705C188.654 739.705 181.041 737.639 174.285 733.509L76.9166 673.93C57.5578 646.187 41.4034 616.083 28.976 584.087C25.8955 576.159 23.0429 568.125 20.4348 559.968C8.90021 524.017 1.96875 485.983 0.375752 446.585C0.131192 440.685 0.00891113 434.771 0.00891113 428.819C0.00891113 421.084 0.218295 413.382 0.621988 405.75C1.63708 386.497 3.93026 367.594 7.41274 349.111L173.532 457.471C187.726 466.73 196.286 482.536 196.286 499.479Z" fill="#B6C5D3"/>
<path d="M435.304 325.062L218.305 457.856C204.792 466.118 187.796 466.118 174.285 457.856L6.3272 355.079C6.67729 353.084 7.04413 351.089 7.41265 349.111C9.81136 336.352 12.7679 323.783 16.2872 311.462C22.6056 289.198 30.6744 267.67 40.353 247.033L174.285 165.085C187.798 156.807 204.793 156.807 218.305 165.085L435.304 297.862C445.456 304.095 445.456 318.849 435.304 325.062Z" fill="#EAF1F9"/>
<path d="M196.286 328.908C213.859 328.908 228.105 320.549 228.105 310.237C228.105 299.926 213.859 291.567 196.286 291.567C178.712 291.567 164.466 299.926 164.466 310.237C164.466 320.549 178.712 328.908 196.286 328.908Z" fill="#574D70"/>
<path d="M196.286 243.092C213.859 243.092 228.105 234.733 228.105 224.421C228.105 214.11 213.859 205.751 196.286 205.751C178.712 205.751 164.466 214.11 164.466 224.421C164.466 234.733 178.712 243.092 196.286 243.092Z" fill="#574D70"/>
<path d="M196.286 414.706C213.859 414.706 228.105 406.347 228.105 396.036C228.105 385.725 213.859 377.366 196.286 377.366C178.712 377.366 164.466 385.725 164.466 396.036C164.466 406.347 178.712 414.706 196.286 414.706Z" fill="#574D70"/>
<path d="M360.666 542.952C367.073 518.182 358.574 494.559 341.683 490.19C324.792 485.821 305.905 502.36 299.498 527.131C293.091 551.902 301.59 575.524 318.481 579.893C335.372 584.262 354.259 567.723 360.666 542.952Z" fill="#574D70"/>
<path d="M114.942 655.409C120.368 668.509 132.006 676.129 140.937 672.429C149.868 668.73 152.709 655.112 147.283 642.012C141.857 628.913 130.219 621.293 121.288 624.992C112.357 628.692 109.516 642.31 114.942 655.409Z" fill="#574D70"/>
<path d="M114.944 506.635C120.37 519.735 132.009 527.355 140.94 523.655C149.871 519.956 152.712 506.338 147.286 493.239C141.86 480.139 130.221 472.519 121.29 476.218C112.359 479.918 109.518 493.536 114.944 506.635Z" fill="#574D70"/>
<path d="M19.9088 453.305C13.7127 455.878 6.20334 452.972 0.375752 446.585C0.131192 440.685 0.00891113 434.771 0.00891113 428.819C0.00891113 421.084 0.218295 413.382 0.621988 405.75C9.49653 402.371 20.9071 409.968 26.264 422.886C31.6896 435.995 28.8537 449.612 19.9088 453.305Z" fill="#574D70"/>
<path d="M1247.02 535.447H1322.77C1365.47 535.447 1400.6 522.14 1428.15 495.525C1455.7 468.91 1469.47 430.364 1469.47 379.888C1469.47 329.411 1455.7 290.865 1428.15 264.25C1400.6 237.177 1365.7 223.64 1323.46 223.64H1247.02V535.447ZM1326.22 623.552H1151.97V135.535H1326.91C1398.07 135.535 1455.93 157.332 1500.46 200.925C1545.46 244.519 1567.96 304.173 1567.96 379.888C1567.96 455.144 1545.46 514.568 1500.46 558.162C1455.47 601.755 1397.38 623.552 1326.22 623.552Z" fill="#24AE8F"/>
<path d="M1735.06 623.552H1643.46V284.9H1735.06V623.552ZM1632.44 174.081C1632.44 158.479 1637.95 145.172 1648.97 134.159C1659.99 122.687 1673.31 116.951 1688.92 116.951C1704.53 116.951 1717.84 122.457 1728.86 133.47C1739.88 144.483 1745.39 158.02 1745.39 174.081C1745.39 189.224 1739.88 202.302 1728.86 213.315C1717.84 224.328 1704.53 229.835 1688.92 229.835C1673.31 229.835 1659.99 224.328 1648.97 213.315C1637.95 202.302 1632.44 189.224 1632.44 174.081Z" fill="#24AE8F"/>
<path d="M1985.33 359.238C1961 359.238 1940.57 367.727 1924.04 384.706C1907.51 401.684 1899.24 424.858 1899.24 454.226C1899.24 483.594 1907.51 506.997 1924.04 524.434C1941.02 541.413 1961.69 549.902 1986.02 549.902C2007.6 549.902 2024.82 544.395 2037.67 533.382C2050.53 521.91 2059.25 508.373 2063.85 492.772L2144.42 519.616C2136.16 550.82 2118.25 577.664 2090.71 600.149C2063.16 622.634 2028.26 633.876 1986.02 633.876C1935.52 633.876 1893.04 616.898 1858.61 582.941C1824.63 548.525 1807.64 505.62 1807.64 454.226C1807.64 402.373 1824.4 359.468 1857.92 325.511C1891.9 291.554 1933.68 274.575 1983.27 274.575C2026.43 274.575 2061.78 285.818 2089.33 308.303C2116.88 330.329 2134.55 357.173 2142.36 388.836L2060.4 416.368C2049.38 378.282 2024.36 359.238 1985.33 359.238Z" fill="#24AE8F"/>
<path d="M2275.23 415.68H2426.74C2425.83 396.866 2418.94 381.035 2406.08 368.186C2393.69 355.338 2375.32 348.913 2350.99 348.913C2328.95 348.913 2311.04 355.797 2297.27 369.563C2283.49 383.329 2276.14 398.702 2275.23 415.68ZM2435.7 503.785L2512.14 526.499C2502.96 557.703 2484.83 583.4 2457.74 603.591C2431.11 623.781 2397.82 633.876 2357.87 633.876C2309.2 633.876 2267.88 617.586 2233.9 585.006C2199.93 551.967 2182.94 507.915 2182.94 452.849C2182.94 400.537 2199.47 357.862 2232.53 324.822C2265.58 291.324 2304.61 274.575 2349.61 274.575C2401.95 274.575 2442.81 290.177 2472.2 321.381C2502.04 352.584 2516.96 395.489 2516.96 450.096C2516.96 453.767 2516.74 457.897 2516.28 462.486C2516.28 467.074 2516.28 470.745 2516.28 473.499L2515.59 478.317H2273.16C2274.08 500.343 2282.8 518.698 2299.33 533.382C2315.86 548.066 2335.6 555.408 2358.56 555.408C2397.59 555.408 2423.3 538.2 2435.7 503.785Z" fill="#24AE8F"/>
<path d="M2948.65 634.565C2894.47 634.565 2849.71 618.504 2814.35 586.383C2779 553.802 2761.32 508.603 2761.32 450.784V135.535H2856.37V443.901C2856.37 475.564 2864.4 499.884 2880.47 516.863C2897 533.382 2919.73 541.642 2948.65 541.642C2978.04 541.642 3000.77 533.382 3016.84 516.863C3033.37 499.884 3041.63 475.564 3041.63 443.901V135.535H3136.67V450.784C3136.67 508.603 3119 553.802 3083.64 586.383C3048.29 618.504 3003.29 634.565 2948.65 634.565Z" fill="#24AE8F"/>
<path d="M3325.02 754.332H3233.42V284.9H3322.26V326.199C3330.53 312.433 3343.84 300.961 3362.21 291.783C3380.58 282.147 3401.93 277.328 3426.26 277.328C3474.47 277.328 3512.58 293.848 3540.59 326.887C3568.59 359.468 3582.6 401.684 3582.6 453.538C3582.6 505.391 3567.68 548.066 3537.83 581.564C3508.45 615.062 3470.11 631.812 3422.82 631.812C3377.82 631.812 3345.22 618.045 3325.02 590.513V754.332ZM3468.27 524.434C3484.34 506.997 3492.38 483.594 3492.38 454.226C3492.38 424.858 3484.34 401.684 3468.27 384.706C3452.66 367.727 3432.69 359.238 3408.35 359.238C3384.02 359.238 3363.82 367.957 3347.75 385.394C3331.68 402.373 3323.64 425.317 3323.64 454.226C3323.64 483.135 3331.68 506.308 3347.75 523.746C3363.82 541.183 3384.02 549.902 3408.35 549.902C3432.69 549.902 3452.66 541.413 3468.27 524.434Z" fill="#24AE8F"/>
</svg>
