<svg width="982" height="998" viewBox="0 0 982 998" fill="none" xmlns="http://www.w3.org/2000/svg">
<path d="M701.8 188.096L412.064 11.736C399.211 3.912 384.715 0 370.217 0C355.719 0 341.223 3.912 328.37 11.736L38.6349 188.096C26.5987 195.423 16.9171 205.63 10.2548 217.532L38.7421 537.324H701.691L730.18 217.538C723.519 205.634 713.836 195.423 701.8 188.096Z" fill="#7CCEBC"/>
<path d="M38.7438 685.015C14.689 670.426 0 644.334 0 616.202V256.843C0 242.848 3.64106 229.352 10.2566 217.532L370.217 436.166L380.511 774.473L370.217 872.419C355.76 872.419 341.305 868.53 328.479 860.751L38.7438 685.015Z" fill="#24AE8F"/>
<path d="M701.69 685.015C725.745 670.425 740.434 644.334 740.434 616.201V256.843C740.434 242.848 736.797 229.358 730.18 217.538L370.217 436.165V872.419C384.674 872.419 399.129 868.53 411.955 860.751L701.69 685.015Z" fill="#50BEA5"/>
<path d="M499.038 450.701H917.544C953.103 450.701 981.93 479.527 981.93 515.086V933.592C981.93 945.32 978.793 956.314 973.316 965.785L917.544 980.437H513.706C478.147 980.437 449.321 951.61 449.321 916.051V472.676L466.803 459.339C476.282 453.847 487.293 450.701 499.038 450.701Z" fill="#ECEAEC"/>
<path d="M198.145 595.969C213.41 589.464 216.465 562.316 204.968 535.333C193.47 508.349 171.774 491.747 156.509 498.251C141.243 504.756 138.188 531.904 149.686 558.888C161.183 585.871 182.879 602.473 198.145 595.969Z" fill="#7CCEBC"/>
<path d="M370.601 242.025C399.881 242.025 423.617 227.053 423.617 208.583C423.617 190.114 399.881 175.141 370.601 175.141C341.322 175.141 317.586 190.114 317.586 208.583C317.586 227.053 341.322 242.025 370.601 242.025Z" fill="white"/>
<path d="M535.287 242.025C564.567 242.025 588.303 227.053 588.303 208.583C588.303 190.114 564.567 175.141 535.287 175.141C506.008 175.141 482.272 190.114 482.272 208.583C482.272 227.053 506.008 242.025 535.287 242.025Z" fill="white"/>
<path d="M205.917 242.025C235.197 242.025 258.933 227.053 258.933 208.583C258.933 190.114 235.197 175.141 205.917 175.141C176.637 175.141 152.901 190.114 152.901 208.583C152.901 227.053 176.637 242.025 205.917 242.025Z" fill="white"/>
<path d="M708.29 772.629C734.96 772.629 756.579 751.009 756.579 724.34C756.579 697.671 734.96 676.051 708.29 676.051C681.621 676.051 660.001 697.671 660.001 724.34C660.001 751.009 681.621 772.629 708.29 772.629Z" fill="#24AE8F"/>
<path d="M563.423 627.762C590.093 627.762 611.712 606.142 611.712 579.473C611.712 552.804 590.093 531.184 563.423 531.184C536.754 531.184 515.135 552.804 515.135 579.473C515.135 606.142 536.754 627.762 563.423 627.762Z" fill="#24AE8F"/>
<path d="M853.159 917.498C879.828 917.498 901.448 895.878 901.448 869.209C901.448 842.54 879.828 820.92 853.159 820.92C826.49 820.92 804.87 842.54 804.87 869.209C804.87 895.878 826.49 917.498 853.159 917.498Z" fill="#24AE8F"/>
<path d="M563.375 965.786C510.036 965.786 466.797 922.546 466.797 869.208L466.803 459.341C443.21 470.726 434.653 491.337 434.653 515.088V933.594C434.653 969.152 463.48 997.979 499.039 997.979H917.545C941.317 997.979 962.165 984.95 973.318 965.786H563.375Z" fill="#DAD8DB"/>
</svg>
