<svg xmlns:xlink="http://www.w3.org/1999/xlink" xmlns="http://www.w3.org/2000/svg" width="37.5" height="25" viewBox="0 0 65 43"><title>Logo</title><path d="M.4 9.98c-.376-1.618.258-1.974 1.419-.793l22.01 22.412c.778.792.52 1.434-.586 1.434h-16.5c-.549 0-1.093-.429-1.219-.971L.398 9.982m63.699 0c.376-1.618-.258-1.974-1.419-.793l-22.01 22.412c-.778.792-.52 1.434.586 1.434h16.5c.549 0 1.093-.429 1.219-.971l5.126-22.08m-58.28 28.17c0-.55.457-.995 1.01-.995h50.875c.557 0 1.01.456 1.01.995v3.577c0 .55-.457.995-1.01.995H6.829a1.01 1.01 0 0 1-1.01-.995v-3.577m11.058-20a1.991 1.991 0 0 1 0-2.821l14.24-14.239a1.991 1.991 0 0 1 2.82 0l14.24 14.239a1.991 1.991 0 0 1 0 2.821l-14.24 14.239a1.991 1.991 0 0 1-2.82 0l-14.24-14.239m26.682.622a2.5 2.5 0 1 0-3.534-3.535 2.5 2.5 0 0 0 3.534 3.535m-9-9a2.5 2.5 0 1 0-3.534-3.535 2.5 2.5 0 0 0 3.534 3.535m-9 9a2.5 2.5 0 1 0-3.534-3.535 2.5 2.5 0 0 0 3.534 3.535m9 9a2.5 2.5 0 1 0-3.534-3.535 2.5 2.5 0 0 0 3.534 3.535m0-9a2.5 2.5 0 1 0-3.534-3.535 2.5 2.5 0 0 0 3.534 3.535" fill="#FFFFFF" fill-rule="nonzero"></path></svg>