<svg width="280" height="76" viewBox="0 0 280 76" fill="none" xmlns="http://www.w3.org/2000/svg">
<circle cx="140" cy="38" r="38" fill="white"/>
<g clip-path="url(#clip0_43_22847)">
<path d="M169.628 43.8956L170.327 50.5618L165.116 54.7807L163.206 61.2059L156.781 63.1173L152.562 68.3272L145.896 67.6285L140 70.8181L134.104 67.6285L127.438 68.3272L123.219 63.116L116.794 61.2059L114.882 54.7807L109.672 50.5618L110.371 43.8956L107.182 37.9999L110.371 32.1041L109.672 25.438L114.884 21.219L116.794 14.7938L123.219 12.8824L127.438 7.67255L134.104 8.37122L140 5.1817L145.896 8.37122L152.562 7.67255L156.781 12.8837L163.206 14.7938L165.117 21.219L170.327 25.438L169.628 32.1041L172.818 37.9999L169.628 43.8956Z" fill="#FCDB6E"/>
<path d="M169.629 43.8956L170.327 50.5618L165.116 54.7807L163.206 61.2059L156.781 63.1173L152.562 68.3272L145.896 67.6285L140 70.8181V5.1817L145.896 8.37122L152.562 7.67255L156.781 12.8837L163.206 14.7938L165.117 21.219L170.327 25.438L169.629 32.1041L172.818 37.9999L169.629 43.8956Z" fill="#FBB36C"/>
<path d="M149.647 57.0087H145.801V38.9971H151.586C154.776 38.9971 157.37 41.5922 157.37 44.782C157.37 47.9718 154.776 50.5668 151.586 50.5668H149.647V57.0087ZM149.647 46.7209H151.586C152.655 46.7209 153.525 45.8511 153.525 44.782C153.525 43.7128 152.655 42.843 151.586 42.843H149.647V46.7209Z" fill="#202F51"/>
<path d="M138.077 38.9962H141.923V57.009H138.077V38.9962Z" fill="#3E4677"/>
<path d="M140 38.9962H141.923V57.009H140V38.9962Z" fill="#202F51"/>
<path d="M130.117 57.0081H126.967L122.172 40.3729L125.867 39.3077L128.542 48.5874L131.217 39.3077L134.913 40.3729L130.117 57.0081Z" fill="#3E4677"/>
<path d="M148.896 21.0591L147.419 34.1056H132.581L131.104 21.0591L136.439 24.4127L140 18.9913L143.561 24.4127L148.896 21.0591Z" fill="#F82A4F"/>
<path d="M148.896 21.0591L147.419 34.1056H140V18.9913L143.561 24.4127L148.896 21.0591Z" fill="#B42A41"/>
</g>
<line y1="37" x2="85" y2="37" stroke="white" stroke-width="2"/>
<line x1="33" y1="50" x2="85" y2="50" stroke="white" stroke-width="2"/>
<line x1="33" y1="24" x2="85" y2="24" stroke="white" stroke-width="2"/>
<line x1="280" y1="39" x2="195" y2="39" stroke="white" stroke-width="2"/>
<line x1="247" y1="26" x2="195" y2="26" stroke="white" stroke-width="2"/>
<line x1="247" y1="52" x2="195" y2="52" stroke="white" stroke-width="2"/>
<defs>
<clipPath id="clip0_43_22847">
<rect x="107.182" y="5.1817" width="65.6364" height="65.6364" rx="15" fill="white"/>
</clipPath>
</defs>
</svg>
