<?xml version="1.0" standalone="no"?>
<!DOCTYPE svg PUBLIC "-//W3C//DTD SVG 20010904//EN"
 "http://www.w3.org/TR/2001/REC-SVG-20010904/DTD/svg10.dtd">
<svg version="1.0" xmlns="http://www.w3.org/2000/svg"
 width="998.000000pt" height="998.000000pt" viewBox="0 0 998.000000 998.000000"
 preserveAspectRatio="xMidYMid meet">
<metadata>
Created by potrace 1.14, written by Peter Selinger 2001-2017
</metadata>
<g transform="translate(0.000000,998.000000) scale(0.100000,-0.100000)"
fill="#000000" stroke="none">
<path d="M3655 9969 c-22 -5 -56 -11 -75 -15 -19 -3 -63 -19 -97 -34 -34 -15
-64 -26 -67 -22 -3 3 -6 0 -6 -6 0 -7 -4 -12 -9 -12 -5 0 -93 -52 -196 -115
-103 -63 -191 -115 -195 -115 -5 0 -10 -3 -12 -7 -1 -5 -15 -15 -30 -23 -15
-8 -86 -51 -158 -95 -72 -44 -145 -88 -161 -97 -63 -38 -91 -55 -185 -113 -54
-33 -103 -62 -109 -64 -5 -2 -12 -7 -15 -11 -4 -5 -56 -37 -198 -121 -80 -48
-238 -144 -242 -149 -3 -3 -18 -12 -35 -20 -16 -8 -32 -17 -35 -20 -6 -7 -200
-125 -244 -149 -17 -9 -35 -19 -40 -24 -32 -22 -90 -59 -119 -73 -17 -9 -34
-20 -37 -23 -3 -3 -17 -13 -32 -21 -76 -41 -274 -165 -280 -174 -4 -6 -8 -8
-8 -3 0 7 -48 -20 -60 -33 -3 -3 -41 -27 -85 -53 -44 -27 -89 -53 -99 -60
-101 -62 -126 -77 -135 -77 -5 0 -11 -3 -13 -8 -1 -4 -48 -34 -103 -67 -135
-80 -200 -128 -265 -194 -58 -58 -120 -141 -120 -160 0 -6 -4 -11 -10 -11 -5
0 -10 -6 -10 -12 0 -7 -6 -25 -14 -39 -20 -39 -54 -146 -65 -209 -7 -35 -10
-720 -10 -1930 0 -1789 1 -1879 18 -1955 19 -81 24 -99 43 -145 10 -25 14 -31
52 -104 53 -99 214 -252 318 -303 21 -10 38 -21 38 -25 0 -5 4 -8 9 -8 6 0 53
-27 106 -60 53 -33 99 -60 102 -60 3 0 20 -10 37 -23 17 -13 38 -27 46 -30 8
-4 33 -18 55 -32 22 -14 47 -28 55 -32 8 -4 17 -9 20 -12 3 -4 61 -40 130 -81
69 -41 127 -77 130 -80 3 -3 17 -12 32 -20 80 -44 194 -114 200 -124 4 -6 8
-7 8 -3 0 4 15 -3 33 -17 19 -15 37 -26 40 -26 3 0 67 -38 141 -84 75 -47 136
-82 136 -78 0 4 4 2 8 -4 9 -13 109 -74 121 -74 5 0 11 -3 13 -7 3 -8 105 -73
114 -73 3 0 10 -5 17 -11 12 -10 159 -99 212 -128 16 -9 32 -19 35 -22 3 -3
21 -14 40 -25 19 -10 37 -21 40 -24 3 -3 15 -11 28 -17 12 -7 32 -19 45 -25
12 -7 24 -15 27 -18 3 -3 57 -37 120 -74 63 -37 117 -72 118 -77 2 -5 11 -9
20 -9 8 0 23 -6 31 -13 9 -8 78 -51 154 -97 75 -45 140 -86 143 -91 3 -5 14
-9 24 -9 10 0 20 -4 22 -9 5 -13 236 -150 242 -144 3 4 6 2 6 -4 0 -6 15 -16
33 -23 108 -40 170 -59 178 -54 5 3 9 2 9 -3 0 -4 17 -9 38 -10 124 -8 159 -8
174 -1 10 5 19 4 23 -2 4 -6 12 -7 18 -3 7 4 21 9 32 10 47 7 139 34 180 53
24 11 46 20 49 20 3 0 37 20 76 45 39 25 73 45 76 45 3 0 31 18 64 40 38 26
60 35 62 27 3 -7 4 -216 4 -464 -1 -249 1 -453 4 -453 3 0 6 -15 7 -33 1 -29
7 -63 14 -77 1 -3 3 -9 4 -15 1 -5 7 -23 13 -38 7 -16 12 -32 12 -36 0 -4 22
-42 50 -82 49 -74 139 -169 159 -169 6 0 11 -5 11 -10 0 -6 10 -15 23 -20 12
-6 29 -14 37 -19 8 -5 37 -19 63 -30 118 -52 18 -50 2347 -50 2074 -1 2168 0
2235 18 152 40 267 115 362 237 28 35 86 138 88 154 0 3 3 10 7 15 3 6 13 45
22 87 15 70 16 297 15 2240 0 2033 -1 2167 -18 2228 -22 80 -73 192 -100 219
-12 12 -18 21 -14 21 18 0 -129 130 -183 162 -67 39 -180 82 -195 73 -5 -4 -9
-3 -9 2 0 14 -84 15 -997 16 -491 0 -894 3 -894 6 -1 3 -3 458 -4 1011 -2 687
-6 1022 -14 1060 -6 30 -14 69 -17 85 -3 17 -9 35 -14 40 -4 6 -13 26 -19 46
-14 44 -84 161 -120 201 -52 60 -101 109 -101 103 0 -4 -8 1 -17 10 -19 20
-175 123 -213 143 -14 6 -41 22 -60 35 -20 12 -62 38 -94 57 -32 19 -70 43
-84 52 -15 10 -40 25 -57 34 -16 9 -59 35 -94 58 -35 23 -68 40 -73 38 -4 -1
-8 3 -8 9 0 5 -13 15 -30 20 -16 6 -30 15 -30 20 0 5 -4 9 -9 9 -8 0 -109 58
-134 78 -7 5 -32 20 -57 33 -25 13 -49 30 -53 37 -4 6 -16 12 -27 12 -10 0
-20 3 -22 8 -5 11 -59 47 -95 63 -18 7 -33 17 -33 21 0 5 -7 8 -15 8 -8 0 -15
5 -15 10 0 6 -5 10 -10 10 -6 0 -52 26 -103 58 -51 32 -118 73 -151 92 -32 19
-73 44 -91 55 -18 11 -79 48 -136 83 -210 128 -335 204 -356 218 -13 8 -24 13
-26 12 -1 -2 -22 12 -45 30 -23 19 -42 31 -42 28 0 -5 -49 25 -86 51 -11 9
-46 30 -84 50 -14 8 -45 27 -70 43 -25 16 -61 38 -80 50 -19 11 -53 31 -75 45
-22 14 -47 28 -55 32 -8 3 -17 9 -20 13 -8 10 -131 80 -140 80 -5 0 -10 4 -12
8 -3 7 -25 22 -156 99 -20 12 -43 27 -49 33 -7 6 -13 8 -13 5 0 -4 -7 1 -16 9
-8 9 -19 14 -24 11 -5 -3 -10 -2 -12 3 -4 10 -106 47 -173 63 -62 14 -246 19
-300 8z"/>
</g>
</svg>
