<svg width="80" height="80" viewBox="0 0 80 80" fill="none" xmlns="http://www.w3.org/2000/svg">
<path d="M1.33301 68V6.66665C1.33301 5.25216 1.89491 3.8956 2.89511 2.89541C3.8953 1.89522 5.25185 1.33331 6.66634 1.33331H51.9997C52.7063 1.33542 53.3833 1.61705 53.883 2.11669C54.3826 2.61633 54.6642 3.29338 54.6663 3.99998V68H1.33301Z" fill="#CD4C60"/>
<path d="M54.6663 62.6667H6.66634C5.25185 62.6667 3.8953 63.2286 2.89511 64.2288C1.89491 65.229 1.33301 66.5855 1.33301 68C1.33301 69.4145 1.89491 70.7711 2.89511 71.7713C3.8953 72.7715 5.25185 73.3334 6.66634 73.3334H54.6663V62.6667Z" fill="#E1EFFF"/>
<path d="M78.6663 44.8533V58.68C78.6889 60.7068 78.3129 62.7182 77.5597 64.6C76.3895 67.8221 75.8596 71.2416 75.9997 74.6667V76C75.9976 76.7066 75.7159 77.3836 75.2163 77.8833C74.7166 78.3829 74.0396 78.6645 73.333 78.6667H55.9997C55.2931 78.6645 54.616 78.3829 54.1164 77.8833C53.6167 77.3836 53.3351 76.7066 53.333 76V73.2667C53.3363 71.5767 52.6922 69.9497 51.533 68.72C50.7063 67.8267 49.6263 66.7067 48.3863 65.4533C46.4298 63.4822 45.3322 60.8173 45.333 58.04V49.3333C45.3321 48.1512 45.7247 47.0023 46.449 46.068C47.1732 45.1337 48.1879 44.4671 49.333 44.1733C49.7673 44.0543 50.216 43.9959 50.6663 44H51.9997V23.52C51.9817 22.6712 52.2759 21.8453 52.8264 21.1989C53.3769 20.5525 54.1455 20.1307 54.9863 20.0133C55.4512 19.9647 55.9211 20.0144 56.3655 20.1592C56.8099 20.3039 57.2188 20.5405 57.5659 20.8536C57.9129 21.1667 58.1902 21.5492 58.3798 21.9764C58.5694 22.4036 58.667 22.8659 58.6663 23.3333V42C58.6657 41.5326 58.7633 41.0703 58.9529 40.6431C59.1425 40.2159 59.4198 39.8334 59.7668 39.5203C60.1138 39.2072 60.5228 38.9706 60.9672 38.8258C61.4116 38.6811 61.8815 38.6314 62.3463 38.68C63.1872 38.7974 63.9558 39.2192 64.5063 39.8656C65.0568 40.5119 65.351 41.3378 65.333 42.1867V43.3333C65.3323 42.8659 65.43 42.4036 65.6196 41.9764C65.8091 41.5492 66.0865 41.1667 66.4335 40.8536C66.7805 40.5405 67.1895 40.3039 67.6339 40.1592C68.0783 40.0144 68.5482 39.9647 69.013 40.0133C69.8539 40.1307 70.6224 40.5525 71.1729 41.1989C71.7234 41.8453 72.0176 42.6712 71.9997 43.52V44.6667C71.999 44.1993 72.0966 43.737 72.2862 43.3098C72.4758 42.8826 72.7531 42.5 73.1001 42.1869C73.4472 41.8739 73.8562 41.6373 74.3006 41.4925C74.7449 41.3477 75.2148 41.298 75.6797 41.3467C76.5205 41.464 77.2891 41.8859 77.8396 42.5322C78.3901 43.1786 78.6843 44.0045 78.6663 44.8533Z" fill="#EABEA3"/>
<path d="M42.667 12H13.3337C11.8609 12 10.667 13.1939 10.667 14.6667V34.6667C10.667 36.1394 11.8609 37.3333 13.3337 37.3333H42.667C44.1398 37.3333 45.3337 36.1394 45.3337 34.6667V14.6667C45.3337 13.1939 44.1398 12 42.667 12Z" fill="white"/>
<path d="M51.9997 44V56C51.9997 56.3536 51.8592 56.6928 51.6091 56.9428C51.3591 57.1929 51.02 57.3333 50.6663 57.3333C50.3127 57.3333 49.9736 57.1929 49.7235 56.9428C49.4735 56.6928 49.333 56.3536 49.333 56V44.1734C49.7673 44.0543 50.216 43.9959 50.6663 44H51.9997Z" fill="#DAAB94"/>
<path d="M40.0003 45.3333H16.0003C15.6467 45.3333 15.3076 45.1929 15.0575 44.9428C14.8075 44.6928 14.667 44.3536 14.667 44C14.667 43.6464 14.8075 43.3073 15.0575 43.0572C15.3076 42.8072 15.6467 42.6667 16.0003 42.6667H40.0003C40.354 42.6667 40.6931 42.8072 40.9431 43.0572C41.1932 43.3073 41.3337 43.6464 41.3337 44C41.3337 44.3536 41.1932 44.6928 40.9431 44.9428C40.6931 45.1929 40.354 45.3333 40.0003 45.3333Z" fill="#A53C50"/>
<path d="M37.333 50.6667H18.6663C18.3127 50.6667 17.9736 50.5262 17.7235 50.2761C17.4735 50.0261 17.333 49.6869 17.333 49.3333C17.333 48.9797 17.4735 48.6406 17.7235 48.3905C17.9736 48.1405 18.3127 48 18.6663 48H37.333C37.6866 48 38.0258 48.1405 38.2758 48.3905C38.5259 48.6406 38.6663 48.9797 38.6663 49.3333C38.6663 49.6869 38.5259 50.0261 38.2758 50.2761C38.0258 50.5262 37.6866 50.6667 37.333 50.6667Z" fill="#A53C50"/>
<path d="M28.0003 18.956C28.3539 18.956 28.6931 18.8155 28.9431 18.5655C29.1932 18.3154 29.3337 17.9763 29.3337 17.6227V17.3333C29.3337 16.9797 29.1932 16.6406 28.9431 16.3905C28.6931 16.1405 28.3539 16 28.0003 16C27.6467 16 27.3076 16.1405 27.0575 16.3905C26.8075 16.6406 26.667 16.9797 26.667 17.3333V17.6227C26.667 17.9763 26.8075 18.3154 27.0575 18.5655C27.3076 18.8155 27.6467 18.956 28.0003 18.956Z" fill="#9EBBCE"/>
<path d="M30.6667 30.6666H29.3333V22.6666C29.3333 22.313 29.1929 21.9739 28.9428 21.7238C28.6928 21.4738 28.3536 21.3333 28 21.3333H25.3333C24.9797 21.3333 24.6406 21.4738 24.3905 21.7238C24.1405 21.9739 24 22.313 24 22.6666C24 23.0203 24.1405 23.3594 24.3905 23.6095C24.6406 23.8595 24.9797 24 25.3333 24H26.6667V30.6666H25.3333C24.9797 30.6666 24.6406 30.8071 24.3905 31.0572C24.1405 31.3072 24 31.6464 24 32C24 32.3536 24.1405 32.6927 24.3905 32.9428C24.6406 33.1928 24.9797 33.3333 25.3333 33.3333H30.6667C31.0203 33.3333 31.3594 33.1928 31.6095 32.9428C31.8595 32.6927 32 32.3536 32 32C32 31.6464 31.8595 31.3072 31.6095 31.0572C31.3594 30.8071 31.0203 30.6666 30.6667 30.6666Z" fill="#9EBBCE"/>
</svg>
