<svg width="80" height="80" viewBox="0 0 80 80" fill="none" xmlns="http://www.w3.org/2000/svg">
<g clip-path="url(#clip0_67_4524)">
<path d="M39.9997 76.7592C57.0297 76.7592 70.8353 62.9537 70.8353 45.9236C70.8353 28.8936 57.0297 15.088 39.9997 15.088C22.9696 15.088 9.16406 28.8936 9.16406 45.9236C9.16406 62.9537 22.9696 76.7592 39.9997 76.7592Z" fill="url(#paint0_linear_67_4524)"/>
<path d="M40.0003 74.9766C56.0458 74.9766 69.0533 61.9691 69.0533 45.9236C69.0533 29.8781 56.0458 16.8706 40.0003 16.8706C23.9547 16.8706 10.9473 29.8781 10.9473 45.9236C10.9473 61.9691 23.9547 74.9766 40.0003 74.9766Z" fill="url(#paint1_linear_67_4524)"/>
<path d="M39.9997 15.088C22.9696 15.088 9.16406 28.8937 9.16406 45.9236C9.16406 62.9536 22.9696 76.7592 39.9997 76.7592C57.0298 76.7592 70.8353 62.9536 70.8353 45.9236C70.8353 28.8937 57.0298 15.088 39.9997 15.088ZM39.9997 74.9767C23.9542 74.9767 10.9467 61.9693 10.9467 45.9236C10.9467 29.878 23.9542 16.8706 39.9997 16.8706C56.0452 16.8706 69.0527 29.8781 69.0527 45.9236C69.0527 61.9691 56.0452 74.9767 39.9997 74.9767Z" fill="url(#paint2_linear_67_4524)"/>
<path d="M40.0002 71.8193C54.302 71.8193 65.8959 60.2254 65.8959 45.9236C65.8959 31.6218 54.302 20.0279 40.0002 20.0279C25.6984 20.0279 14.1045 31.6218 14.1045 45.9236C14.1045 60.2254 25.6984 71.8193 40.0002 71.8193Z" fill="url(#paint3_linear_67_4524)"/>
<path d="M40.0003 70.0021C53.2985 70.0021 64.0787 59.2218 64.0787 45.9236C64.0787 32.6255 53.2985 21.8452 40.0003 21.8452C26.7022 21.8452 15.9219 32.6255 15.9219 45.9236C15.9219 59.2218 26.7022 70.0021 40.0003 70.0021Z" fill="url(#paint4_linear_67_4524)"/>
<path d="M39.9998 76.1575C41.0115 76.1575 41.8316 75.3373 41.8316 74.3256C41.8316 73.3139 41.0115 72.4938 39.9998 72.4938C38.9881 72.4938 38.168 73.3139 38.168 74.3256C38.168 75.3373 38.9881 76.1575 39.9998 76.1575Z" fill="url(#paint5_linear_67_4524)"/>
<path d="M40.0003 75.906C40.8731 75.906 41.5807 75.1985 41.5807 74.3256C41.5807 73.4528 40.8731 72.7452 40.0003 72.7452C39.1275 72.7452 38.4199 73.4528 38.4199 74.3256C38.4199 75.1985 39.1275 75.906 40.0003 75.906Z" fill="url(#paint6_linear_67_4524)"/>
<path d="M39.9998 19.3534C41.0115 19.3534 41.8316 18.5333 41.8316 17.5216C41.8316 16.5099 41.0115 15.6897 39.9998 15.6897C38.9881 15.6897 38.168 16.5099 38.168 17.5216C38.168 18.5333 38.9881 19.3534 39.9998 19.3534Z" fill="url(#paint7_linear_67_4524)"/>
<path d="M40.0003 19.1019C40.8731 19.1019 41.5807 18.3944 41.5807 17.5216C41.5807 16.6487 40.8731 15.9412 40.0003 15.9412C39.1275 15.9412 38.4199 16.6487 38.4199 17.5216C38.4199 18.3944 39.1275 19.1019 40.0003 19.1019Z" fill="url(#paint8_linear_67_4524)"/>
<path d="M11.5984 47.7555C12.6101 47.7555 13.4303 46.9353 13.4303 45.9236C13.4303 44.9119 12.6101 44.0918 11.5984 44.0918C10.5867 44.0918 9.7666 44.9119 9.7666 45.9236C9.7666 46.9353 10.5867 47.7555 11.5984 47.7555Z" fill="url(#paint9_linear_67_4524)"/>
<path d="M11.598 47.504C12.4708 47.504 13.1784 46.7964 13.1784 45.9236C13.1784 45.0508 12.4708 44.3432 11.598 44.3432C10.7251 44.3432 10.0176 45.0508 10.0176 45.9236C10.0176 46.7964 10.7251 47.504 11.598 47.504Z" fill="url(#paint10_linear_67_4524)"/>
<path d="M68.4022 47.7555C69.4139 47.7555 70.234 46.9353 70.234 45.9236C70.234 44.9119 69.4139 44.0918 68.4022 44.0918C67.3905 44.0918 66.5703 44.9119 66.5703 45.9236C66.5703 46.9353 67.3905 47.7555 68.4022 47.7555Z" fill="url(#paint11_linear_67_4524)"/>
<path d="M68.4017 47.504C69.2745 47.504 69.9821 46.7964 69.9821 45.9236C69.9821 45.0508 69.2745 44.3432 68.4017 44.3432C67.5289 44.3432 66.8213 45.0508 66.8213 45.9236C66.8213 46.7964 67.5289 47.504 68.4017 47.504Z" fill="url(#paint12_linear_67_4524)"/>
<path d="M19.9168 67.8387C20.9285 67.8387 21.7486 67.0186 21.7486 66.0069C21.7486 64.9952 20.9285 64.175 19.9168 64.175C18.9051 64.175 18.085 64.9952 18.085 66.0069C18.085 67.0186 18.9051 67.8387 19.9168 67.8387Z" fill="url(#paint13_linear_67_4524)"/>
<path d="M19.9163 67.5873C20.7892 67.5873 21.4967 66.8797 21.4967 66.0069C21.4967 65.1341 20.7892 64.4265 19.9163 64.4265C19.0435 64.4265 18.3359 65.1341 18.3359 66.0069C18.3359 66.8797 19.0435 67.5873 19.9163 67.5873Z" fill="url(#paint14_linear_67_4524)"/>
<path d="M60.0828 27.6722C61.0945 27.6722 61.9147 26.852 61.9147 25.8403C61.9147 24.8286 61.0945 24.0085 60.0828 24.0085C59.0711 24.0085 58.251 24.8286 58.251 25.8403C58.251 26.852 59.0711 27.6722 60.0828 27.6722Z" fill="url(#paint15_linear_67_4524)"/>
<path d="M60.0833 27.4207C60.9562 27.4207 61.6637 26.7131 61.6637 25.8403C61.6637 24.9675 60.9562 24.2599 60.0833 24.2599C59.2105 24.2599 58.5029 24.9675 58.5029 25.8403C58.5029 26.7131 59.2105 27.4207 60.0833 27.4207Z" fill="url(#paint16_linear_67_4524)"/>
<path d="M19.9168 27.6722C20.9285 27.6722 21.7486 26.852 21.7486 25.8403C21.7486 24.8286 20.9285 24.0085 19.9168 24.0085C18.9051 24.0085 18.085 24.8286 18.085 25.8403C18.085 26.852 18.9051 27.6722 19.9168 27.6722Z" fill="url(#paint17_linear_67_4524)"/>
<path d="M19.9163 27.4207C20.7892 27.4207 21.4967 26.7131 21.4967 25.8403C21.4967 24.9675 20.7892 24.2599 19.9163 24.2599C19.0435 24.2599 18.3359 24.9675 18.3359 25.8403C18.3359 26.7131 19.0435 27.4207 19.9163 27.4207Z" fill="url(#paint18_linear_67_4524)"/>
<path d="M60.0828 67.8387C61.0945 67.8387 61.9147 67.0186 61.9147 66.0069C61.9147 64.9952 61.0945 64.175 60.0828 64.175C59.0711 64.175 58.251 64.9952 58.251 66.0069C58.251 67.0186 59.0711 67.8387 60.0828 67.8387Z" fill="url(#paint19_linear_67_4524)"/>
<path d="M60.0833 67.5873C60.9562 67.5873 61.6637 66.8797 61.6637 66.0069C61.6637 65.1341 60.9562 64.4265 60.0833 64.4265C59.2105 64.4265 58.5029 65.1341 58.5029 66.0069C58.5029 66.8797 59.2105 67.5873 60.0833 67.5873Z" fill="url(#paint20_linear_67_4524)"/>
<path d="M29.2264 74.0347C30.2381 74.0347 31.0582 73.2145 31.0582 72.2028C31.0582 71.1911 30.2381 70.371 29.2264 70.371C28.2147 70.371 27.3945 71.1911 27.3945 72.2028C27.3945 73.2145 28.2147 74.0347 29.2264 74.0347Z" fill="url(#paint21_linear_67_4524)"/>
<path d="M29.2259 73.7832C30.0987 73.7832 30.8063 73.0757 30.8063 72.2028C30.8063 71.33 30.0987 70.6224 29.2259 70.6224C28.3531 70.6224 27.6455 71.33 27.6455 72.2028C27.6455 73.0757 28.3531 73.7832 29.2259 73.7832Z" fill="url(#paint22_linear_67_4524)"/>
<path d="M50.0788 21.3393C51.015 21.7231 52.085 21.2753 52.4686 20.3391C52.8525 19.403 52.4046 18.333 51.4686 17.9493C50.5325 17.5655 49.4625 18.0133 49.0788 18.9493C48.695 19.8857 49.1427 20.9556 50.0788 21.3393Z" fill="url(#paint23_linear_67_4524)"/>
<path d="M50.7738 21.2248C51.6466 21.2248 52.3542 20.5172 52.3542 19.6444C52.3542 18.7716 51.6466 18.064 50.7738 18.064C49.9009 18.064 49.1934 18.7716 49.1934 19.6444C49.1934 20.5172 49.9009 21.2248 50.7738 21.2248Z" fill="url(#paint24_linear_67_4524)"/>
<path d="M12.0261 34.4549C11.6422 35.391 12.0901 36.461 13.0261 36.8447C13.9622 37.2285 15.0322 36.7807 15.4159 35.8447C15.7997 34.9085 15.3519 33.8386 14.4159 33.4549C13.4799 33.071 12.4099 33.5187 12.0261 34.4549Z" fill="url(#paint25_linear_67_4524)"/>
<path d="M13.721 36.7302C14.5938 36.7302 15.3014 36.0226 15.3014 35.1498C15.3014 34.277 14.5938 33.5694 13.721 33.5694C12.8482 33.5694 12.1406 34.277 12.1406 35.1498C12.1406 36.0226 12.8482 36.7302 13.721 36.7302Z" fill="url(#paint26_linear_67_4524)"/>
<path d="M66.2791 58.5293C67.2908 58.5293 68.111 57.7091 68.111 56.6974C68.111 55.6857 67.2908 54.8656 66.2791 54.8656C65.2674 54.8656 64.4473 55.6857 64.4473 56.6974C64.4473 57.7091 65.2674 58.5293 66.2791 58.5293Z" fill="url(#paint27_linear_67_4524)"/>
<path d="M66.2796 58.2778C67.1524 58.2778 67.86 57.5702 67.86 56.6974C67.86 55.8246 67.1524 55.117 66.2796 55.117C65.4068 55.117 64.6992 55.8246 64.6992 56.6974C64.6992 57.5702 65.4068 58.2778 66.2796 58.2778Z" fill="url(#paint28_linear_67_4524)"/>
<path d="M12.1093 57.5948C12.4999 58.5282 13.573 58.9682 14.5063 58.5776C15.4396 58.187 15.8796 57.1139 15.4891 56.1806C15.0985 55.2472 14.0254 54.8072 13.092 55.1978C12.1587 55.5882 11.7187 56.6615 12.1093 57.5948Z" fill="url(#paint29_linear_67_4524)"/>
<path d="M13.7991 58.4679C14.672 58.4679 15.3795 57.7604 15.3795 56.8875C15.3795 56.0147 14.672 55.3071 13.7991 55.3071C12.9263 55.3071 12.2188 56.0147 12.2188 56.8875C12.2188 57.7604 12.9263 58.4679 13.7991 58.4679Z" fill="url(#paint30_linear_67_4524)"/>
<path d="M64.5107 35.6668C64.9012 36.6002 65.9743 37.0402 66.9077 36.6496C67.841 36.259 68.281 35.1859 67.8904 34.2526C67.4998 33.3192 66.4267 32.8792 65.4934 33.2698C64.5601 33.6602 64.1201 34.7335 64.5107 35.6668Z" fill="url(#paint31_linear_67_4524)"/>
<path d="M66.2005 36.5401C67.0733 36.5401 67.7809 35.8325 67.7809 34.9597C67.7809 34.0869 67.0733 33.3793 66.2005 33.3793C65.3277 33.3793 64.6201 34.0869 64.6201 34.9597C64.6201 35.8325 65.3277 36.5401 66.2005 36.5401Z" fill="url(#paint32_linear_67_4524)"/>
<path d="M28.3284 18.0333C27.395 18.4239 26.955 19.497 27.3456 20.4303C27.7362 21.3636 28.8093 21.8036 29.7426 21.413C30.676 21.0224 31.116 19.9493 30.7254 19.016C30.3349 18.0827 29.2617 17.6427 28.3284 18.0333Z" fill="url(#paint33_linear_67_4524)"/>
<path d="M29.0364 21.3035C29.9093 21.3035 30.6168 20.596 30.6168 19.7231C30.6168 18.8503 29.9093 18.1427 29.0364 18.1427C28.1636 18.1427 27.4561 18.8503 27.4561 19.7231C27.4561 20.596 28.1636 21.3035 29.0364 21.3035Z" fill="url(#paint34_linear_67_4524)"/>
<path d="M50.9637 73.9559C51.9754 73.9559 52.7955 73.1358 52.7955 72.1241C52.7955 71.1124 51.9754 70.2922 50.9637 70.2922C49.952 70.2922 49.1318 71.1124 49.1318 72.1241C49.1318 73.1358 49.952 73.9559 50.9637 73.9559Z" fill="url(#paint35_linear_67_4524)"/>
<path d="M50.9642 73.7045C51.837 73.7045 52.5446 72.9969 52.5446 72.1241C52.5446 71.2513 51.837 70.5437 50.9642 70.5437C50.0914 70.5437 49.3838 71.2513 49.3838 72.1241C49.3838 72.9969 50.0914 73.7045 50.9642 73.7045Z" fill="url(#paint36_linear_67_4524)"/>
<path d="M40.0004 74.8859C55.9959 74.8859 68.9628 61.9191 68.9628 45.9236C68.9628 29.9281 55.9959 16.9612 40.0004 16.9612C24.005 16.9612 11.0381 29.9281 11.0381 45.9236C11.0381 61.9191 24.005 74.8859 40.0004 74.8859Z" fill="url(#paint37_linear_67_4524)"/>
<path d="M49.8374 41.6144C49.7628 41.4529 49.6335 41.3158 49.4602 41.2372C49.3855 41.0754 49.2562 40.9385 49.0829 40.8599L30.9766 22.7534C30.8737 22.5305 30.6669 22.3539 30.3842 22.3136L24.4835 21.4651C19.6246 24.5542 15.7496 29.0518 13.4307 34.3829L13.4202 34.4439C13.3661 34.7559 13.5006 35.0332 13.7196 35.1969L23.9046 45.3818C23.9471 45.4136 23.9937 45.4398 24.042 45.4626C24.0969 45.5805 24.1795 45.6825 24.2818 45.759C24.3243 45.7909 24.3709 45.8171 24.4192 45.8398C24.4741 45.958 24.5568 46.0599 24.6591 46.1363C24.7016 46.1681 24.7482 46.1943 24.7965 46.2171C24.8514 46.3351 24.9341 46.437 25.0363 46.5136C25.079 46.5454 25.1254 46.5716 25.1737 46.5943C25.2286 46.7123 25.3113 46.8143 25.4136 46.8908C25.4561 46.9227 25.5027 46.9489 25.551 46.9716C25.6059 47.0896 25.6886 47.1917 25.7908 47.2681C25.8333 47.2999 25.8799 47.3261 25.9282 47.3489C25.9832 47.4668 26.0658 47.5688 26.1681 47.6453C26.2106 47.6772 26.2572 47.7034 26.3055 47.7261C26.3604 47.8441 26.4431 47.946 26.5453 48.0226C26.5879 48.0544 26.6344 48.0806 26.6828 48.1034C26.7377 48.2213 26.8203 48.3233 26.9226 48.3998C26.9651 48.4317 27.0117 48.4579 27.06 48.4806C27.1149 48.5986 27.1976 48.7005 27.2999 48.7771C27.3424 48.8089 27.389 48.8351 27.4373 48.8579C27.4922 48.9758 27.5748 49.0778 27.6771 49.1543C27.7196 49.1862 27.7662 49.2124 27.8145 49.2351C27.8694 49.3531 27.9521 49.4551 28.0544 49.5316C28.0969 49.5634 28.1435 49.5896 28.1918 49.6124C28.2465 49.7303 28.3293 49.8323 28.4316 49.9089C28.4741 49.9407 28.5207 49.9669 28.569 49.9896C28.6239 50.1076 28.7066 50.2096 28.8089 50.2861C28.8514 50.318 28.898 50.3441 28.9463 50.3669C29.0012 50.4849 29.0839 50.5868 29.1861 50.6634C29.2288 50.6952 29.2752 50.7214 29.3235 50.7441C29.3784 50.8621 29.4611 50.9641 29.5634 51.0406C29.6059 51.0725 29.6525 51.0987 29.7008 51.1214C29.7557 51.2394 29.8384 51.3413 29.9406 51.4179C29.9831 51.4497 30.0297 51.4759 30.0781 51.4987C30.133 51.6166 30.2156 51.7186 30.3179 51.7951C30.3604 51.827 30.407 51.8532 30.4553 51.8759C30.5102 51.9939 30.5929 52.0958 30.6952 52.1724C30.7377 52.2042 30.7842 52.2304 30.8326 52.2532C30.8875 52.3711 30.9701 52.4731 31.0724 52.5496C31.1149 52.5815 31.1615 52.6077 31.2098 52.6304C31.2647 52.7484 31.3474 52.8503 31.4497 52.9269C31.4922 52.9587 31.5388 52.9849 31.5871 53.0077C31.6418 53.1256 31.7246 53.2276 31.8269 53.3041C31.8694 53.336 31.916 53.3622 31.9643 53.3849C32.0192 53.5031 32.1019 53.605 32.2042 53.6814C32.2467 53.7132 32.2933 53.7394 32.3416 53.7622C32.3965 53.8801 32.4792 53.9821 32.5814 54.0587C32.6239 54.0905 32.6705 54.1167 32.7188 54.1394C32.7737 54.2574 32.8564 54.3595 32.9587 54.4359C33.1792 54.6009 33.4856 54.6522 33.7712 54.5093L39.5744 51.6168L45.3775 54.5093C45.6632 54.6521 45.9697 54.6008 46.1901 54.4359C46.4092 54.2723 46.5436 53.995 46.4895 53.683L45.3982 47.3169L50.049 42.8838C50.2834 42.6605 50.3375 42.35 50.2515 42.0838C50.1864 41.8822 50.0426 41.7074 49.8374 41.6144Z" fill="url(#paint38_linear_67_4524)"/>
<path d="M68.7422 42.3462C67.9929 36.264 65.3591 30.7653 61.4413 26.4535C60.7005 25.7217 59.9916 25.0196 59.3287 24.3569C59.3284 24.3566 59.3281 24.3564 59.3279 24.3561C58.0605 23.2195 56.692 22.1933 55.2382 21.2918C55.2159 21.278 55.194 21.264 55.1717 21.2504C55.0161 21.1544 54.859 21.0604 54.7014 20.9672C54.6664 20.9467 54.6318 20.9258 54.5966 20.9053C54.4468 20.8177 54.2959 20.7316 54.1445 20.6468C54.1006 20.6221 54.0567 20.5973 54.0126 20.573C53.8664 20.4921 53.7194 20.4124 53.5717 20.3338C53.5216 20.3071 53.4714 20.2808 53.4212 20.2544C53.2766 20.1787 53.1312 20.1038 52.9852 20.0304C52.9314 20.0035 52.8776 19.9768 52.8236 19.9501C52.679 19.8786 52.5339 19.8078 52.3878 19.7387C52.3321 19.7123 52.2761 19.6864 52.2201 19.6604C52.0741 19.5923 51.9278 19.5249 51.7805 19.4591C51.7249 19.4344 51.6689 19.4104 51.6131 19.3859C51.4641 19.3205 51.3147 19.2555 51.1643 19.1926C51.1124 19.1708 51.0598 19.1501 51.0078 19.1286C50.8521 19.0646 50.6964 19.0009 50.5395 18.9396C50.5017 18.9249 50.4636 18.9109 50.4258 18.8963C49.8623 18.6788 49.2906 18.4778 48.7107 18.2951C48.6937 18.2897 48.6771 18.2839 48.6601 18.2788C48.5209 18.2351 48.3803 18.194 48.2401 18.1525C48.1594 18.1286 48.0793 18.1037 47.9983 18.0806C47.8724 18.0446 47.7456 18.0105 47.6189 17.9762C47.5227 17.95 47.4269 17.9233 47.3304 17.898C47.2101 17.8667 47.089 17.837 46.9681 17.8072C46.8639 17.7815 46.7601 17.7556 46.6554 17.731C46.5384 17.7034 46.4208 17.6773 46.3031 17.6513C46.1935 17.627 46.084 17.6027 45.9739 17.5796C45.8592 17.5556 45.7441 17.5327 45.6289 17.51C45.5144 17.4874 45.3999 17.4653 45.2849 17.4441C45.1723 17.4234 45.0595 17.4033 44.9466 17.3838C44.8281 17.3635 44.7094 17.3438 44.5903 17.3249C44.4791 17.3071 44.3678 17.2899 44.2562 17.2734C44.1342 17.2554 44.0117 17.2386 43.8892 17.2221C43.7797 17.2074 43.6702 17.1928 43.5604 17.1795C43.4339 17.1639 43.3069 17.1498 43.18 17.136C43.0729 17.1242 42.9659 17.1123 42.8584 17.1018C42.7265 17.0889 42.5941 17.0778 42.4617 17.0667C42.3583 17.0579 42.255 17.0486 42.1513 17.0411C42.0114 17.0309 41.8708 17.0228 41.7304 17.0144C41.6332 17.0088 41.5361 17.002 41.4385 16.9973C41.2816 16.9897 41.1243 16.9845 40.9668 16.9795C40.8849 16.9768 40.8035 16.9727 40.7215 16.9708C40.4851 16.965 40.2482 16.9619 40.0104 16.9619C40.007 16.9619 40.0034 16.9617 39.9999 16.9617C39.9979 16.9617 39.996 16.9617 39.9939 16.9617C39.7607 16.9617 39.5282 16.965 39.2962 16.9705C39.2186 16.9724 39.1416 16.9758 39.0641 16.9782C38.9075 16.9832 38.7511 16.9886 38.595 16.9961C38.5042 17.0005 38.4137 17.006 38.323 17.0111C38.1806 17.0193 38.0382 17.0279 37.8964 17.0383C37.8018 17.045 37.7074 17.0526 37.6131 17.0602C37.4747 17.0715 37.3367 17.0838 37.199 17.0969C37.1047 17.106 37.0104 17.1151 36.9165 17.1252C36.7767 17.1399 36.6374 17.1562 36.4981 17.173C36.4081 17.1838 36.318 17.1944 36.2281 17.206C36.0782 17.2254 35.9287 17.2469 35.7794 17.2687C35.7019 17.28 35.6242 17.2904 35.547 17.3023C35.3237 17.3368 35.1009 17.3733 34.8793 17.4129C34.8496 17.4182 34.8203 17.4243 34.7907 17.4297C34.5971 17.4648 34.404 17.5015 34.2118 17.5406C34.1292 17.5573 34.0471 17.5755 33.9648 17.5931C33.8258 17.6226 33.6868 17.6522 33.5486 17.6838C33.4565 17.7048 33.3648 17.7269 33.273 17.7487C33.1448 17.7791 33.0168 17.8102 32.8893 17.8424C32.7949 17.8662 32.7006 17.8907 32.6065 17.9155C32.4819 17.9482 32.3576 17.982 32.2336 18.0163C32.1395 18.0425 32.0456 18.0687 31.9517 18.0958C31.8269 18.1319 31.7027 18.1693 31.5786 18.2069C31.4879 18.2345 31.3969 18.2617 31.3066 18.29C31.1736 18.3319 31.0412 18.3755 30.9089 18.4191C30.8292 18.4455 30.7492 18.4709 30.67 18.4979C30.4644 18.5678 30.2595 18.6397 30.0561 18.7142C30.0553 18.7145 30.0545 18.7148 30.0537 18.715L32.1903 20.7548L30.7312 29.2816C30.6587 29.6998 30.839 30.0715 31.1326 30.2908L43.1886 42.3468H68.7422V42.3462Z" fill="url(#paint39_linear_67_4524)"/>
<path d="M54.3113 13.7343C54.1979 13.3793 53.8987 13.0838 53.4694 13.0224L44.7918 11.7605L40.9372 3.82808C40.7475 3.4378 40.374 3.24078 40.0004 3.24078C39.6267 3.24078 39.2533 3.4378 39.0636 3.82808L35.2089 11.7605L26.5312 13.0224C26.1019 13.0838 25.8026 13.3793 25.6893 13.7343C25.574 14.0911 25.6465 14.5074 25.9607 14.8067L32.1943 20.7485L30.7315 29.2812C30.6591 29.6994 30.8393 30.0712 31.1329 30.2905C31.4285 30.5117 31.8391 30.5804 32.222 30.389L40.0004 26.5118L47.7784 30.3889C48.1613 30.5802 48.572 30.5115 48.8675 30.2903C49.1612 30.0711 49.3414 29.6993 49.2689 29.2811L47.8062 20.7484L54.0398 14.8066C54.3541 14.5074 54.4266 14.091 54.3113 13.7343ZM40.0004 18.2728L39.9874 18.2765L39.993 18.2709L40.0004 18.2598L40.0078 18.2709L40.0133 18.2765L40.0004 18.2728Z" fill="url(#paint40_linear_67_4524)"/>
<path d="M39.9928 18.2711L39.9871 18.2767L32.1942 20.7486L25.9606 14.8068C25.6466 14.5075 25.5741 14.0911 25.6892 13.7343L39.9928 18.2711Z" fill="url(#paint41_linear_67_4524)"/>
<path d="M39.9866 18.2766L31.1323 30.2904C30.8386 30.0711 30.6584 29.6993 30.7309 29.2811L32.1936 20.7484L39.9866 18.2766Z" fill="url(#paint42_linear_67_4524)"/>
<path d="M48.8673 30.2904C48.5718 30.5115 48.1611 30.5802 47.7782 30.3889L40 26.5119V18.2728L40.013 18.2766L48.8673 30.2904Z" fill="url(#paint43_linear_67_4524)"/>
<path d="M40 18.2728V26.5119L32.2219 30.3889C31.839 30.5802 31.4283 30.5115 31.1328 30.2904L39.9871 18.2766L40 18.2728Z" fill="url(#paint44_linear_67_4524)"/>
<path d="M48.867 30.2904L40.0127 18.2766L47.8056 20.7484L49.2684 29.2811C49.3409 29.6993 49.1606 30.0711 48.867 30.2904Z" fill="url(#paint45_linear_67_4524)"/>
<path d="M40.0004 18.2598L39.993 18.2709L25.6895 13.7341C25.8029 13.3791 26.102 13.0836 26.5313 13.0223L35.209 11.7603L40.0004 18.2598Z" fill="url(#paint46_linear_67_4524)"/>
<path d="M44.7914 11.7605L40 18.2598V3.24078C40.3735 3.24078 40.7471 3.4378 40.9368 3.82808L44.7914 11.7605Z" fill="url(#paint47_linear_67_4524)"/>
<path d="M40.0004 3.24078V18.2599L35.209 11.7605L39.0637 3.82808C39.2532 3.4378 39.6267 3.24078 40.0004 3.24078Z" fill="url(#paint48_linear_67_4524)"/>
<path d="M54.3109 13.7343L40.0074 18.2711L40 18.2598L44.7914 11.7603L53.469 13.0223C53.8983 13.0838 54.1976 13.3793 54.3109 13.7343Z" fill="url(#paint49_linear_67_4524)"/>
<path d="M54.0398 14.8066L47.8062 20.7484L40.0133 18.2766L40.0078 18.2709L54.3113 13.7341C54.4263 14.091 54.3538 14.5075 54.0398 14.8066Z" fill="url(#paint50_linear_67_4524)"/>
<path d="M51.8876 14.2654C51.7935 13.9705 51.5448 13.725 51.1883 13.6742L43.9803 12.6259L40.7784 6.03701C40.6209 5.71277 40.3106 5.54916 40.0004 5.54916C39.6901 5.54916 39.3798 5.71277 39.2223 6.03701L36.0204 12.6259L28.8124 13.6742C28.4559 13.7252 28.2073 13.9707 28.1131 14.2654C28.0175 14.5619 28.0777 14.9076 28.3386 15.1562L33.5164 20.0917L32.3015 27.1793C32.2413 27.5266 32.3911 27.8354 32.635 28.0175C32.8805 28.2012 33.2217 28.2583 33.5397 28.0994L40.0004 24.879L46.4612 28.0994C46.7792 28.2585 47.1204 28.2014 47.3658 28.0175C47.6098 27.8354 47.7596 27.5266 47.6993 27.1793L46.4844 20.0917L51.6623 15.1562C51.9232 14.9076 51.9833 14.5619 51.8876 14.2654ZM40.0004 18.0353L39.9895 18.0384L39.9942 18.0337L40.0004 18.0245L40.0065 18.0337L40.0112 18.0384L40.0004 18.0353Z" fill="url(#paint51_linear_67_4524)"/>
<path d="M31.0126 22.8447C30.9281 22.5799 30.7049 22.3594 30.3846 22.3136L23.9104 21.3721L21.0344 15.454C20.8929 15.1628 20.6144 15.0157 20.3356 15.0157C20.0569 15.0157 19.7781 15.1627 19.6368 15.454L16.7609 21.3721L10.2867 22.3136C9.96636 22.3594 9.74314 22.5798 9.65859 22.8447C9.57263 23.1109 9.62675 23.4215 9.8611 23.6449L14.5119 28.078L13.4206 34.4439C13.3665 34.7559 13.5011 35.0333 13.7201 35.1969C13.9406 35.3619 14.247 35.4132 14.5326 35.2704L20.3358 32.3779L26.1389 35.2704C26.4246 35.4132 26.7311 35.3619 26.9515 35.1969C27.1706 35.0333 27.305 34.7559 27.2509 34.4439L26.1596 28.078L30.8104 23.6449C31.0446 23.4215 31.0986 23.1109 31.0126 22.8447ZM20.3356 26.2307L20.3259 26.2336L20.33 26.2293L20.3355 26.221L20.3409 26.2293L20.3452 26.2336L20.3356 26.2307Z" fill="url(#paint52_linear_67_4524)"/>
<path d="M20.3301 26.2293L20.326 26.2336L14.5119 28.0778L9.8611 23.6447C9.62675 23.4215 9.57263 23.1109 9.65859 22.8445L20.3301 26.2293Z" fill="url(#paint53_linear_67_4524)"/>
<path d="M20.3256 26.2336L13.7196 35.1967C13.5005 35.0331 13.3661 34.7558 13.4202 34.4438L14.5115 28.0778L20.3256 26.2336Z" fill="url(#paint54_linear_67_4524)"/>
<path d="M26.9507 35.1969C26.7301 35.3619 26.4237 35.4132 26.1381 35.2704L20.335 32.3779V26.2309L20.3447 26.2337L26.9507 35.1969Z" fill="url(#paint55_linear_67_4524)"/>
<path d="M20.3354 26.2307V32.3777L14.5323 35.2703C14.2466 35.413 13.9401 35.3617 13.7197 35.1967L20.3257 26.2336L20.3354 26.2307Z" fill="url(#paint56_linear_67_4524)"/>
<path d="M26.9507 35.1969L20.3447 26.2337L26.1588 28.078L27.2501 34.4439C27.3043 34.7558 27.1697 35.0331 26.9507 35.1969Z" fill="url(#paint57_linear_67_4524)"/>
<path d="M20.3352 26.2212L20.3297 26.2295L9.6582 22.8447C9.74275 22.5799 9.96597 22.3594 10.2863 22.3136L16.7605 21.3721L20.3352 26.2212Z" fill="url(#paint58_linear_67_4524)"/>
<path d="M23.9097 21.3721L20.335 26.2212V15.0157C20.6137 15.0157 20.8925 15.1627 21.0338 15.454L23.9097 21.3721Z" fill="url(#paint59_linear_67_4524)"/>
<path d="M20.3355 15.0157V26.2212L16.7607 21.3721L19.6367 15.454C19.778 15.1627 20.0567 15.0157 20.3355 15.0157Z" fill="url(#paint60_linear_67_4524)"/>
<path d="M31.012 22.8447L20.3405 26.2295L20.335 26.2212L23.9097 21.3721L30.3839 22.3136C30.7042 22.3594 30.9274 22.5798 31.012 22.8447Z" fill="url(#paint61_linear_67_4524)"/>
<path d="M30.81 23.6447L26.1592 28.0778L20.3451 26.2336L20.3408 26.2293L31.0123 22.8445C31.0983 23.1109 31.0443 23.4215 30.81 23.6447Z" fill="url(#paint62_linear_67_4524)"/>
<path d="M29.2043 23.2409C29.134 23.021 28.9486 22.8378 28.6825 22.7998L23.3048 22.0177L20.9159 17.1018C20.7984 16.8599 20.5669 16.7379 20.3354 16.7379C20.1039 16.7379 19.8723 16.8599 19.7548 17.1018L17.366 22.0177L11.9883 22.7998C11.7222 22.8378 11.5368 23.021 11.4665 23.2409C11.3952 23.4621 11.44 23.7202 11.6347 23.9056L15.4977 27.5879L14.5912 32.8758C14.5464 33.1349 14.6581 33.3653 14.84 33.5012C15.0231 33.6383 15.2777 33.6808 15.515 33.5622L20.3352 31.1595L25.1555 33.5622C25.3928 33.6808 25.6472 33.6383 25.8305 33.5012C26.0124 33.3653 26.1241 33.1349 26.0792 32.8758L25.1727 27.5879L29.0358 23.9056C29.2308 23.7202 29.2758 23.4621 29.2043 23.2409ZM20.3355 26.0536L20.3275 26.056L20.331 26.0525L20.3355 26.0456L20.3401 26.0525L20.3435 26.056L20.3355 26.0536Z" fill="url(#paint63_linear_67_4524)"/>
<path d="M52.2354 26.5603L53.8294 28.0822L52.7408 34.4439C52.6866 34.7559 52.8212 35.0332 53.0402 35.1969L62.0349 44.1915L63.4167 42.1586C63.9657 41.3509 64.7302 40.7118 65.6264 40.3234C66.5025 39.9438 67.335 39.4828 68.115 38.9506C66.809 33.6671 64.0532 28.9561 60.2934 25.2626C60.0816 25.2565 59.8692 25.2522 59.6559 25.2522C57.0488 25.2524 54.5495 25.7142 52.2354 26.5603Z" fill="url(#paint64_linear_67_4524)"/>
<path d="M70.3417 22.8447C70.2572 22.5799 70.034 22.3594 69.7137 22.3136L63.2395 21.3721L60.3635 15.454C60.2221 15.1628 59.9433 15.0157 59.6647 15.0157C59.3861 15.0157 59.1072 15.1627 58.9659 15.454L56.09 21.3721L49.6158 22.3136C49.2955 22.3594 49.0722 22.5798 48.9877 22.8447C48.9017 23.1109 48.9559 23.4215 49.1902 23.6449L53.841 28.078L52.7497 34.4439C52.6956 34.7559 52.8302 35.0333 53.0492 35.1969C53.2697 35.3619 53.5761 35.4132 53.8617 35.2704L59.6647 32.3779L65.4679 35.2704C65.7535 35.4132 66.06 35.3619 66.2804 35.1969C66.4995 35.0333 66.634 34.7559 66.5799 34.4439L65.4886 28.078L70.1394 23.6449C70.3736 23.4215 70.4277 23.1109 70.3417 22.8447ZM59.6646 26.2307L59.6548 26.2336L59.6591 26.2293L59.6646 26.221L59.6701 26.2293L59.6743 26.2336L59.6646 26.2307Z" fill="url(#paint65_linear_67_4524)"/>
<path d="M59.6594 26.2293L59.6551 26.2336L53.841 28.0778L49.1902 23.6447C48.9558 23.4215 48.9017 23.1109 48.9877 22.8445L59.6594 26.2293Z" fill="url(#paint66_linear_67_4524)"/>
<path d="M59.6547 26.2336L53.0487 35.1967C52.8296 35.0331 52.6952 34.7558 52.7493 34.4438L53.8406 28.0778L59.6547 26.2336Z" fill="url(#paint67_linear_67_4524)"/>
<path d="M66.2807 35.1969C66.0602 35.3619 65.7538 35.4132 65.4682 35.2704L59.665 32.3779V26.2309L59.6748 26.2337L66.2807 35.1969Z" fill="url(#paint68_linear_67_4524)"/>
<path d="M59.6643 26.2307V32.3777L53.8614 35.2703C53.5757 35.413 53.2692 35.3617 53.0488 35.1967L59.6548 26.2336L59.6643 26.2307Z" fill="url(#paint69_linear_67_4524)"/>
<path d="M66.2808 35.1969L59.6748 26.2337L65.4889 28.078L66.5802 34.4439C66.6343 34.7558 66.4999 35.0331 66.2808 35.1969Z" fill="url(#paint70_linear_67_4524)"/>
<path d="M59.6643 26.2212L59.6588 26.2295L48.9873 22.8447C49.0719 22.5799 49.2951 22.3594 49.6154 22.3136L56.0896 21.3721L59.6643 26.2212Z" fill="url(#paint71_linear_67_4524)"/>
<path d="M63.2398 21.3721L59.665 26.2212V15.0157C59.9438 15.0157 60.2225 15.1627 60.3639 15.454L63.2398 21.3721Z" fill="url(#paint72_linear_67_4524)"/>
<path d="M59.6646 15.0157V26.2212L56.0898 21.3721L58.9658 15.454C59.1072 15.1627 59.3858 15.0157 59.6646 15.0157Z" fill="url(#paint73_linear_67_4524)"/>
<path d="M70.342 22.8447L59.6705 26.2295L59.665 26.2212L63.2398 21.3721L69.714 22.3136C70.0341 22.3594 70.2573 22.5798 70.342 22.8447Z" fill="url(#paint74_linear_67_4524)"/>
<path d="M70.1391 23.6447L65.4883 28.0778L59.6742 26.2336L59.6699 26.2293L70.3415 22.8445C70.4276 23.1109 70.3735 23.4215 70.1391 23.6447Z" fill="url(#paint75_linear_67_4524)"/>
<path d="M68.5333 23.2409C68.4631 23.021 68.2777 22.8378 68.0116 22.7998L62.6339 22.0177L60.245 17.1018C60.1275 16.8599 59.896 16.7379 59.6645 16.7379C59.433 16.7379 59.2014 16.8599 59.0839 17.1018L56.6951 22.0177L51.3174 22.7998C51.0513 22.8378 50.8659 23.021 50.7956 23.2409C50.7243 23.4621 50.7691 23.7202 50.9638 23.9056L54.8268 27.5879L53.9203 32.8758C53.8755 33.1349 53.9872 33.3653 54.1691 33.5012C54.3523 33.6383 54.6068 33.6808 54.8441 33.5622L59.6643 31.1595L64.4846 33.5622C64.7219 33.6808 64.9763 33.6383 65.1595 33.5012C65.3415 33.3653 65.4532 33.1349 65.4083 32.8758L64.5018 27.5879L68.3649 23.9056C68.5599 23.7202 68.6047 23.4621 68.5333 23.2409ZM59.6645 26.0536L59.6565 26.056L59.6599 26.0525L59.6645 26.0456L59.669 26.0525L59.6725 26.056L59.6645 26.0536Z" fill="url(#paint76_linear_67_4524)"/>
<path d="M39.35 57.9269L35.7401 63.1443C35.5528 63.4151 35.5528 63.7735 35.7401 64.0443L39.35 69.2617C39.6645 69.7161 40.3362 69.7161 40.6505 69.2617L44.2604 64.0443C44.4477 63.7735 44.4477 63.4151 44.2604 63.1443L40.6505 57.9269C40.3362 57.4725 39.6645 57.4725 39.35 57.9269Z" fill="url(#paint77_linear_67_4524)"/>
<path d="M39.4303 58.6304L36.2686 63.2002C36.1045 63.4373 36.1045 63.7512 36.2686 63.9884L39.4303 68.5581C39.7057 68.9562 40.294 68.9562 40.5694 68.5581L43.7312 63.9884C43.8952 63.7512 43.8952 63.4373 43.7312 63.2002L40.5694 58.6304C40.294 58.2323 39.7057 58.2323 39.4303 58.6304Z" fill="url(#paint78_linear_67_4524)"/>
<path d="M40.8848 59.086C40.6564 58.7558 40.1666 58.7123 39.9099 59.021C39.8965 59.037 39.8837 59.054 39.8714 59.0715L36.9291 63.3239C36.633 63.752 36.633 64.3187 36.9291 64.7468L39.7362 68.8039C40.0228 68.9213 40.3745 68.84 40.5695 68.5581L43.7313 63.9884C43.8954 63.7512 43.8954 63.4373 43.7313 63.2002L40.8848 59.086Z" fill="url(#paint79_linear_67_4524)"/>
<path d="M40.5693 58.6304C40.4122 58.4036 40.1536 58.3065 39.9092 58.3384V68.8503C40.1536 68.8822 40.4122 68.7851 40.5693 68.5581L43.731 63.9884C43.8951 63.7512 43.8951 63.4373 43.731 63.2002L40.5693 58.6304Z" fill="url(#paint80_linear_67_4524)"/>
<path d="M39.4305 68.558C39.706 68.9561 40.2942 68.9561 40.5697 68.558L43.7314 63.9882C43.8134 63.8697 43.8544 63.7319 43.8544 63.5942H36.1455C36.1455 63.7319 36.1866 63.8698 36.2686 63.9882L39.4305 68.558Z" fill="url(#paint81_linear_67_4524)"/>
<path d="M31.7188 56.9445L29.1019 60.7268C28.966 60.923 28.966 61.1829 29.1019 61.3792L31.7188 65.1614C31.9467 65.4908 32.4338 65.4908 32.6617 65.1614L35.2787 61.3792C35.4145 61.1829 35.4145 60.923 35.2787 60.7268L32.6617 56.9445C32.4338 56.6151 31.9467 56.6151 31.7188 56.9445Z" fill="url(#paint82_linear_67_4524)"/>
<path d="M31.7768 57.4546L29.4847 60.7674C29.3658 60.9393 29.3658 61.1669 29.4847 61.3387L31.7768 64.6515C31.9765 64.9401 32.403 64.9401 32.6025 64.6515L34.8946 61.3387C35.0135 61.1668 35.0135 60.9391 34.8946 60.7674L32.6025 57.4546C32.403 57.166 31.9765 57.166 31.7768 57.4546Z" fill="url(#paint83_linear_67_4524)"/>
<path d="M32.8312 57.7848C32.6656 57.5454 32.3106 57.5139 32.1244 57.7376C32.1147 57.7492 32.1054 57.7614 32.0967 57.7741L29.9638 60.8568C29.749 61.1671 29.749 61.578 29.9638 61.8883L31.9988 64.8295C32.2066 64.9145 32.4614 64.8557 32.6027 64.6513L34.8948 61.3385C35.0137 61.1666 35.0137 60.939 34.8948 60.7671L32.8312 57.7848Z" fill="url(#paint84_linear_67_4524)"/>
<path d="M32.6026 57.4546C32.4889 57.29 32.3013 57.2198 32.124 57.2428V64.8634C32.3013 64.8864 32.4887 64.816 32.6026 64.6516L34.8947 61.3388C35.0136 61.1669 35.0136 60.9393 34.8947 60.7675L32.6026 57.4546Z" fill="url(#paint85_linear_67_4524)"/>
<path d="M31.7768 64.6515C31.9765 64.9401 32.403 64.9401 32.6026 64.6515L34.8947 61.3387C34.9541 61.2527 34.9839 61.1528 34.9839 61.053H29.3955C29.3955 61.153 29.4252 61.2527 29.4848 61.3387L31.7768 64.6515Z" fill="url(#paint86_linear_67_4524)"/>
<path d="M47.3389 56.9445L44.722 60.7268C44.5862 60.923 44.5862 61.1829 44.722 61.3792L47.3389 65.1614C47.5669 65.4908 48.0539 65.4908 48.2818 65.1614L50.8988 61.3792C51.0346 61.1829 51.0346 60.923 50.8988 60.7268L48.2818 56.9445C48.0539 56.6151 47.5669 56.6151 47.3389 56.9445Z" fill="url(#paint87_linear_67_4524)"/>
<path d="M47.3969 57.4546L45.1048 60.7674C44.9859 60.9393 44.9859 61.1669 45.1048 61.3387L47.3969 64.6515C47.5966 64.9401 48.0231 64.9401 48.2226 64.6515L50.5147 61.3387C50.6336 61.1668 50.6336 60.9391 50.5147 60.7674L48.2226 57.4546C48.0231 57.166 47.5966 57.166 47.3969 57.4546Z" fill="url(#paint88_linear_67_4524)"/>
<path d="M48.4514 57.7848C48.2857 57.5454 47.9307 57.5139 47.7445 57.7376C47.7348 57.7492 47.7256 57.7614 47.7168 57.7741L45.5839 60.8568C45.3692 61.1671 45.3692 61.578 45.5839 61.8883L47.6189 64.8295C47.8266 64.9145 48.0815 64.8557 48.2228 64.6513L50.5149 61.3385C50.6338 61.1666 50.6338 60.939 50.5149 60.7671L48.4514 57.7848Z" fill="url(#paint89_linear_67_4524)"/>
<path d="M48.2227 57.4546C48.1088 57.29 47.9214 57.2198 47.7441 57.2428V64.8634C47.9214 64.8864 48.1088 64.816 48.2227 64.6516L50.5148 61.3388C50.6337 61.1669 50.6337 60.9393 50.5148 60.7675L48.2227 57.4546Z" fill="url(#paint90_linear_67_4524)"/>
<path d="M47.397 64.6515C47.5966 64.9401 48.0232 64.9401 48.2227 64.6515L50.5148 61.3387C50.5742 61.2527 50.604 61.1528 50.604 61.053H45.0156C45.0156 61.153 45.0454 61.2527 45.1049 61.3387L47.397 64.6515Z" fill="url(#paint91_linear_67_4524)"/>
<path d="M10.6201 55.3068C14.5903 67.7482 26.2421 76.7592 40 76.7592C53.758 76.7592 65.4098 67.7482 69.38 55.3068H10.6201Z" fill="url(#paint92_linear_67_4524)"/>
<path d="M79.0492 47.4094C78.517 46.3678 77.8438 45.4962 77.0425 44.8104C77.7012 44.4207 78.2637 43.8499 78.6847 43.1241C79.2466 42.1547 79.5314 41.1517 79.5314 40.1432C79.5314 38.7679 78.9462 37.5007 77.8814 36.5735C77.119 35.9104 76.1774 35.437 75.0816 35.1664C74.3236 34.9795 73.6455 34.8551 73.0086 34.7859C72.4053 34.7205 71.8158 34.6872 71.2561 34.6872C68.7782 34.6872 66.5961 35.3352 64.7699 36.6133C64.7128 36.6533 64.6552 36.6951 64.5975 36.7379C64.2241 36.2394 63.7316 35.8173 63.1365 35.5065C62.2929 35.0665 61.3296 34.8436 60.2736 34.8436C59.1903 34.8436 58.2143 35.0712 57.3713 35.5205C56.6792 35.89 56.1255 36.4122 55.7438 37.033C55.3553 36.4044 54.789 35.877 54.0792 35.5065C53.2353 35.0667 52.2723 34.8438 51.2166 34.8438C50.133 34.8438 49.1569 35.0714 48.3143 35.5206C48.1387 35.6143 47.9722 35.718 47.8149 35.8306C47.6491 35.7128 47.4734 35.6041 47.287 35.5068C46.4433 35.0668 45.4802 34.8439 44.424 34.8439C43.3674 34.8439 42.4039 35.0671 41.5603 35.5073C40.8805 35.862 40.3319 36.3614 39.9454 36.9561C39.4991 36.3704 39.0342 35.9413 38.5162 35.6279C37.6427 35.1002 36.5529 34.8439 35.1849 34.8439C34.1098 34.8439 33.1307 35.0797 32.2748 35.5451C31.6177 35.9024 31.0878 36.3972 30.7101 36.9801C28.9922 35.5638 26.7868 34.8439 24.1504 34.8439C21.4772 34.8439 19.2433 35.5914 17.5115 37.0651C17.3131 37.2339 17.1272 37.4132 16.9495 37.5989C15.5423 35.8251 13.2278 34.8439 10.2009 34.8439H4.86604C3.7931 34.8439 2.82071 35.1117 1.97553 35.6399C0.72 36.4245 0 37.7181 0 39.1889V55.7412C0 57.0541 0.607529 58.2362 1.70776 59.0678C2.5771 59.7264 3.63969 60.0605 4.86604 60.0605H10.6436C13.0499 60.0605 15.0482 59.3249 16.5829 57.8745C16.7169 57.7479 16.8431 57.6146 16.966 57.4781C17.139 57.6577 17.3191 57.8314 17.5115 57.995C19.2441 59.4693 21.4778 60.2168 24.1507 60.2168C26.8207 60.2168 29.0493 59.4794 30.7769 58.0265C31.1493 58.5655 31.6557 59.0231 32.2737 59.3584C33.1296 59.8243 34.1093 60.0605 35.1854 60.0605C36.2605 60.0605 37.2395 59.8246 38.0952 59.3595C38.7926 58.9805 39.3485 58.4482 39.7294 57.8184C40.419 58.8105 41.8075 60.0605 44.4245 60.0605C45.4998 60.0605 46.4789 59.8246 47.3346 59.3592C47.9885 59.0038 48.5164 58.512 48.8938 57.9327C48.926 57.9603 48.9561 57.9895 48.9887 58.0166C50.7427 59.4765 53.016 60.2166 55.7452 60.2166C58.4529 60.2166 60.7187 59.4789 62.48 58.0238C62.5962 57.9277 62.7147 57.8234 62.8336 57.7114C63.2778 58.1194 63.8235 58.5167 64.495 58.8896C66.2036 59.8392 68.1893 60.3205 70.3973 60.3205C73.075 60.3205 75.3264 59.5765 77.0891 58.109C78.9934 56.5238 80 54.256 80 51.5511C80 50.0383 79.6803 48.6452 79.0492 47.4094Z" fill="url(#paint93_linear_67_4524)"/>
<path d="M70.3969 58.4631C68.5084 58.4631 66.8262 58.0603 65.3972 57.2661C64.8888 56.9839 64.449 56.6734 64.0896 56.3434L63.9373 56.2036C63.3064 55.6242 62.3351 55.63 61.7111 56.2168L61.5603 56.3584C61.4725 56.441 61.3832 56.5199 61.2952 56.5926C59.8767 57.7646 58.009 58.3592 55.7446 58.3592C53.4672 58.3592 51.5978 57.7669 50.1876 56.5984C50.1876 56.5984 50.1294 56.5462 50.1031 56.5235L49.9103 56.358C49.1602 55.7141 48.0148 55.8778 47.4752 56.7061L47.3365 56.9189C47.1192 57.2526 46.8199 57.5246 46.4468 57.7271C45.8661 58.043 45.1856 58.203 44.4237 58.203C42.9868 58.203 41.9203 57.7169 41.2541 56.7583L41.0584 56.4766C40.3824 55.504 38.9291 55.5503 38.3162 56.5638L38.1388 56.8573C37.9246 57.2118 37.6024 57.5126 37.2072 57.7275C36.6267 58.043 35.9462 58.203 35.1846 58.203C34.4224 58.203 33.7415 58.0427 33.1611 57.7269C32.806 57.5341 32.5184 57.28 32.3048 56.9707L32.1657 56.7694C31.6176 55.9762 30.5059 55.8268 29.7679 56.4474L29.5806 56.6049C28.1961 57.769 26.3691 58.3592 24.15 58.3592C21.9304 58.3592 20.1017 57.7606 18.7147 56.5804C18.5842 56.4694 18.4497 56.3417 18.3034 56.1897L18.1376 56.0174C17.4791 55.3335 16.3785 55.3523 15.7437 56.0582L15.5839 56.2359C15.4775 56.3542 15.3893 56.4458 15.3064 56.5241C14.1111 57.6538 12.5856 58.2028 10.6428 58.2028H4.86558C4.04221 58.2028 3.37617 58.0014 2.82934 57.5872C2.19279 57.1061 1.85742 56.4683 1.85742 55.7412V39.1889C1.85742 38.3603 2.24895 37.6593 2.96001 37.2147C3.50511 36.8742 4.14636 36.7013 4.86574 36.7013H10.2011C11.8733 36.7013 14.1489 37.0573 15.4943 38.7531L15.6529 38.9529C16.269 39.7297 17.4292 39.7837 18.115 39.0676L18.2915 38.8833C18.4402 38.7278 18.579 38.5959 18.7156 38.4795C20.1023 37.2996 21.9308 36.7013 24.1506 36.7013C26.3413 36.7013 28.1508 37.2772 29.5286 38.4132L29.7211 38.5719C30.475 39.1934 31.6021 39.0195 32.1335 38.1995L32.2693 37.9901C32.4869 37.6544 32.7873 37.3809 33.1624 37.1771C33.7429 36.8615 34.4235 36.7015 35.1853 36.7015C36.2052 36.7015 36.9807 36.8704 37.5561 37.2179C37.877 37.4121 38.1672 37.6869 38.4681 38.0817L38.6596 38.333C39.3451 39.2328 40.7151 39.1815 41.3315 38.2331L41.5035 37.9682C41.7228 37.6309 42.0311 37.357 42.4199 37.1542C42.9958 36.8537 43.6701 36.7013 44.4245 36.7013C45.1785 36.7013 45.8527 36.8537 46.4286 37.1539C46.5333 37.2086 46.638 37.2728 46.7388 37.3445L46.8681 37.4364C47.4369 37.8408 48.1995 37.8397 48.7671 37.4336L48.8027 37.4082C48.9614 37.2946 49.1258 37.1876 49.3015 37.1021C49.848 36.8361 50.4918 36.7013 51.217 36.7013C51.9705 36.7013 52.6447 36.8537 53.2209 37.1539C53.6203 37.3624 53.9467 37.6585 54.1636 38.0097L54.3534 38.3169C54.9934 39.3522 56.4998 39.3504 57.1373 38.3136L57.3263 38.0061C57.5393 37.6598 57.8574 37.3669 58.2463 37.1594C58.8162 36.8557 59.4985 36.7015 60.2737 36.7015C61.0278 36.7015 61.702 36.8538 62.2775 37.1539C62.6157 37.3305 62.8962 37.5653 63.1104 37.8515L63.2432 38.0287C63.7824 38.749 64.8024 38.8984 65.5255 38.3627L65.7034 38.2309C65.7478 38.1981 65.792 38.166 65.8356 38.1352C67.3429 37.0803 69.1668 36.5453 71.2562 36.5453C71.7487 36.5453 72.2709 36.5749 72.8082 36.6331C73.3621 36.6933 73.9602 36.8036 74.6366 36.9704C75.4425 37.1694 76.1243 37.5076 76.6621 37.9755C77.3236 38.5514 77.6736 39.3013 77.6736 40.1435C77.6736 40.8209 77.473 41.5103 77.0773 42.1926C76.8203 42.6359 76.4902 42.979 76.0966 43.2116L75.8289 43.37C74.8642 43.9407 74.7465 45.2908 75.5981 46.0198L75.8345 46.222C76.4499 46.7487 76.9748 47.4326 77.395 48.2549C77.8907 49.2259 78.1423 50.3349 78.1423 51.5512C78.1423 53.717 77.3881 55.4433 75.9006 56.6819C74.4802 57.8635 72.6287 58.4631 70.3969 58.4631Z" fill="url(#paint94_linear_67_4524)"/>
<path d="M3.09668 55.7412V39.1887C3.09668 38.7898 3.26986 38.482 3.61715 38.2649C3.96397 38.0482 4.38044 37.9398 4.86625 37.9398H10.2016C13.6714 37.9398 15.4068 39.4842 15.4068 42.5722C15.4068 44.6543 14.6691 46.0166 13.1946 46.6582C14.0794 46.9879 14.7472 47.461 15.1986 48.0765C15.6496 48.6925 15.8754 49.6082 15.8754 50.8223V51.3688C15.8754 53.3122 15.4024 54.7305 14.457 55.6238C13.5113 56.5178 12.2404 56.9644 10.6443 56.9644H4.86641C4.32852 56.9644 3.89903 56.8431 3.57825 56.6C3.25684 56.3572 3.09668 56.0709 3.09668 55.7412ZM7.13072 45.0966H9.86343C10.3318 45.0966 10.6962 44.9189 10.9564 44.5633C11.2167 44.2078 11.3467 43.7868 11.3467 43.3009C11.3467 42.8154 11.2167 42.39 10.9564 42.0256C10.6962 41.6613 10.3318 41.4791 9.86343 41.4791H7.13072V45.0966ZM7.13072 53.4248H9.73323C11.1212 53.4248 11.8153 52.627 11.8153 51.0304V50.614C11.8153 49.0177 11.1212 48.2196 9.73323 48.2196H7.13072V53.4248Z" fill="url(#paint95_linear_67_4524)"/>
<path d="M17.7744 50.9785V44.0817C17.7744 41.965 18.3554 40.4121 19.5181 39.4231C20.6803 38.434 22.2249 37.9396 24.1507 37.9396C26.0938 37.9396 27.6467 38.434 28.8092 39.4231C29.9714 40.4121 30.5529 41.965 30.5529 44.0817V50.9785C30.5529 53.0954 29.9714 54.6482 28.8092 55.637C27.6466 56.6259 26.0938 57.1205 24.1507 57.1205C22.2249 57.1205 20.6805 56.6259 19.5181 55.637C18.3556 54.6482 17.7744 53.0954 17.7744 50.9785ZM21.8343 50.9785C21.8343 52.7136 22.6061 53.581 24.1506 53.581C25.7121 53.581 26.493 52.7136 26.493 50.9785V44.0817C26.493 42.347 25.7123 41.4791 24.1506 41.4791C22.6061 41.4791 21.8343 42.347 21.8343 44.0817V50.9785Z" fill="url(#paint96_linear_67_4524)"/>
<path d="M33.1553 55.7151V39.1887C33.1553 38.7898 33.3545 38.482 33.7539 38.2649C34.1528 38.0482 34.6298 37.9398 35.1852 37.9398C35.9661 37.9398 36.5427 38.0527 36.9159 38.278C37.2888 38.5037 37.7096 39.0678 38.1782 39.9697L42.3943 48.0116V39.163C42.3943 38.7639 42.5935 38.4604 42.9929 38.2521C43.3918 38.0438 43.8688 37.9398 44.4243 37.9398C44.9793 37.9398 45.4563 38.0438 45.8557 38.2521C46.2546 38.4604 46.4543 38.7639 46.4543 39.163V55.7153C46.4543 56.1147 46.2546 56.4224 45.8557 56.6392C45.4563 56.8563 44.9793 56.9646 44.4243 56.9646C43.3137 56.9646 42.559 56.6002 42.16 55.8714L37.2152 46.8665V55.7151C37.2152 56.1145 37.0157 56.4223 36.6166 56.6391C36.2172 56.8562 35.7404 56.9644 35.1852 56.9644C34.6298 56.9644 34.1528 56.8562 33.7539 56.6391C33.3545 56.4223 33.1553 56.1144 33.1553 55.7151Z" fill="url(#paint97_linear_67_4524)"/>
<path d="M49.1865 50.9785V39.1628C49.1865 38.7638 49.3817 38.4602 49.7721 38.2519C50.1625 38.0436 50.6441 37.9396 51.2165 37.9396C51.7716 37.9396 52.2485 38.0436 52.6479 38.2519C53.0469 38.4602 53.2464 38.7638 53.2464 39.1628V50.9785C53.2464 52.7136 54.0792 53.581 55.745 53.581C57.4105 53.581 58.2435 52.7136 58.2435 50.9785V39.1628C58.2435 38.7638 58.4386 38.4602 58.829 38.2519C59.2195 38.0436 59.701 37.9396 60.2736 37.9396C60.8286 37.9396 61.3056 38.0436 61.705 38.2519C62.1039 38.4602 62.3035 38.7638 62.3035 39.1628V50.9785C62.3035 53.0954 61.705 54.6482 60.5078 55.637C59.3106 56.6259 57.7231 57.1205 55.7451 57.1205C53.7497 57.1205 52.1577 56.6259 50.9694 55.637C49.7804 54.6482 49.1865 53.0954 49.1865 50.9785Z" fill="url(#paint98_linear_67_4524)"/>
<path d="M64.125 53.8413C64.125 53.3558 64.3027 52.8698 64.6586 52.3838C65.0141 51.8984 65.4263 51.6552 65.8949 51.6552C66.1551 51.6552 66.4455 51.7605 66.7667 51.9708C67.0875 52.1813 67.3824 52.4144 67.6516 52.6703C67.9204 52.9264 68.2977 53.1595 68.7837 53.3697C69.2692 53.5802 69.7812 53.6853 70.3192 53.6853C70.9959 53.6853 71.5854 53.5421 72.0889 53.256C72.592 52.9697 72.8436 52.5402 72.8436 51.9677C72.8436 51.395 72.5614 50.8921 71.9978 50.4582C71.4339 50.0246 70.7485 49.6298 69.9418 49.274C69.1349 48.9186 68.3236 48.5194 67.5084 48.0769C66.6927 47.6345 66.003 47.0058 65.4394 46.1901C64.8753 45.3747 64.5935 44.4033 64.5935 43.2753C64.5935 41.4361 65.2441 40.0612 66.5454 39.1501C67.8467 38.2392 69.4168 37.7838 71.256 37.7838C71.7069 37.7838 72.1799 37.8107 72.6743 37.8643C73.1688 37.9181 73.7239 38.0209 74.3399 38.173C74.9556 38.325 75.4589 38.5707 75.8495 38.9103C76.2398 39.2502 76.4351 39.6613 76.4351 40.1437C76.4351 40.6022 76.2919 41.0781 76.0058 41.5718C75.7195 42.0654 75.3245 42.3122 74.8216 42.3122C74.6135 42.3122 74.1709 42.1475 73.4944 41.8177C72.8177 41.4883 72.0715 41.3233 71.2561 41.3233C70.3882 41.3233 69.7377 41.4753 69.3043 41.7787C68.8704 42.0824 68.6536 42.4513 68.6536 42.8849C68.6536 43.2841 68.8574 43.6485 69.2654 43.9777C69.6728 44.3076 70.1804 44.5895 70.7877 44.8237C71.3948 45.0579 72.0585 45.3617 72.7788 45.7346C73.4985 46.1079 74.1622 46.5155 74.7697 46.9578C75.3767 47.4003 75.8842 48.0209 76.292 48.8187C76.6996 49.6169 76.9036 50.5277 76.9036 51.5514C76.9036 53.3406 76.3051 54.7333 75.1079 55.7302C73.9107 56.7269 72.3402 57.2249 70.3973 57.2249C68.7142 57.2249 67.2483 56.8781 65.999 56.1838C64.7496 55.4897 64.125 54.709 64.125 53.8413Z" fill="url(#paint99_linear_67_4524)"/>
</g>
<defs>
<linearGradient id="paint0_linear_67_4524" x1="17.1451" y1="23.069" x2="62.4993" y2="68.4232" gradientUnits="userSpaceOnUse">
<stop stop-color="#FFD945"/>
<stop offset="0.3043" stop-color="#FFCD3E"/>
<stop offset="0.8558" stop-color="#FFAD2B"/>
<stop offset="1" stop-color="#FFA325"/>
</linearGradient>
<linearGradient id="paint1_linear_67_4524" x1="41.4933" y1="47.4166" x2="17.456" y2="23.3793" gradientUnits="userSpaceOnUse">
<stop stop-color="#FFD945" stop-opacity="0"/>
<stop offset="1" stop-color="#FBED21"/>
</linearGradient>
<linearGradient id="paint2_linear_67_4524" x1="40.5128" y1="46.4101" x2="78.7834" y2="82.6854" gradientUnits="userSpaceOnUse">
<stop stop-color="#E87264" stop-opacity="0"/>
<stop offset="1" stop-color="#FF7044"/>
</linearGradient>
<linearGradient id="paint3_linear_67_4524" x1="56.774" y1="62.6974" x2="20.3782" y2="26.3016" gradientUnits="userSpaceOnUse">
<stop stop-color="#FFD945"/>
<stop offset="0.3043" stop-color="#FFCD3E"/>
<stop offset="0.8558" stop-color="#FFAD2B"/>
<stop offset="1" stop-color="#FFA325"/>
</linearGradient>
<linearGradient id="paint4_linear_67_4524" x1="24.4036" y1="30.3269" x2="58.2453" y2="64.1686" gradientUnits="userSpaceOnUse">
<stop stop-color="#FFD945"/>
<stop offset="0.3043" stop-color="#FFCD3E"/>
<stop offset="0.8558" stop-color="#FFAD2B"/>
<stop offset="1" stop-color="#FFA325"/>
</linearGradient>
<linearGradient id="paint5_linear_67_4524" x1="41.0307" y1="75.3564" x2="36.8009" y2="71.1266" gradientUnits="userSpaceOnUse">
<stop stop-color="#FFD945"/>
<stop offset="0.3043" stop-color="#FFCD3E"/>
<stop offset="0.8558" stop-color="#FFAD2B"/>
<stop offset="1" stop-color="#FFA325"/>
</linearGradient>
<linearGradient id="paint6_linear_67_4524" x1="39.3156" y1="73.6408" x2="40.7046" y2="75.0299" gradientUnits="userSpaceOnUse">
<stop stop-color="#FF7044"/>
<stop offset="1" stop-color="#F82814"/>
</linearGradient>
<linearGradient id="paint7_linear_67_4524" x1="41.0307" y1="18.5525" x2="36.8009" y2="14.3227" gradientUnits="userSpaceOnUse">
<stop stop-color="#FFD945"/>
<stop offset="0.3043" stop-color="#FFCD3E"/>
<stop offset="0.8558" stop-color="#FFAD2B"/>
<stop offset="1" stop-color="#FFA325"/>
</linearGradient>
<linearGradient id="paint8_linear_67_4524" x1="39.3156" y1="16.8368" x2="40.7046" y2="18.2259" gradientUnits="userSpaceOnUse">
<stop stop-color="#FF7044"/>
<stop offset="1" stop-color="#F82814"/>
</linearGradient>
<linearGradient id="paint9_linear_67_4524" x1="10.5677" y1="46.9545" x2="14.7975" y2="42.7247" gradientUnits="userSpaceOnUse">
<stop stop-color="#FFD945"/>
<stop offset="0.3043" stop-color="#FFCD3E"/>
<stop offset="0.8558" stop-color="#FFAD2B"/>
<stop offset="1" stop-color="#FFA325"/>
</linearGradient>
<linearGradient id="paint10_linear_67_4524" x1="12.2828" y1="45.2389" x2="10.8937" y2="46.6279" gradientUnits="userSpaceOnUse">
<stop stop-color="#FF7044"/>
<stop offset="1" stop-color="#F82814"/>
</linearGradient>
<linearGradient id="paint11_linear_67_4524" x1="67.3713" y1="46.9545" x2="71.6011" y2="42.7247" gradientUnits="userSpaceOnUse">
<stop stop-color="#FFD945"/>
<stop offset="0.3043" stop-color="#FFCD3E"/>
<stop offset="0.8558" stop-color="#FFAD2B"/>
<stop offset="1" stop-color="#FFA325"/>
</linearGradient>
<linearGradient id="paint12_linear_67_4524" x1="69.0864" y1="45.2389" x2="67.6974" y2="46.6279" gradientUnits="userSpaceOnUse">
<stop stop-color="#FF7044"/>
<stop offset="1" stop-color="#F82814"/>
</linearGradient>
<linearGradient id="paint13_linear_67_4524" x1="19.9525" y1="67.4542" x2="19.9526" y2="61.4734" gradientUnits="userSpaceOnUse">
<stop stop-color="#FFD945"/>
<stop offset="0.3043" stop-color="#FFCD3E"/>
<stop offset="0.8558" stop-color="#FFAD2B"/>
<stop offset="1" stop-color="#FFA325"/>
</linearGradient>
<linearGradient id="paint14_linear_67_4524" x1="19.8992" y1="65.0283" x2="19.8992" y2="66.9926" gradientUnits="userSpaceOnUse">
<stop stop-color="#FF7044"/>
<stop offset="1" stop-color="#F82814"/>
</linearGradient>
<linearGradient id="paint15_linear_67_4524" x1="60.1128" y1="27.2934" x2="60.1129" y2="21.3126" gradientUnits="userSpaceOnUse">
<stop stop-color="#FFD945"/>
<stop offset="0.3043" stop-color="#FFCD3E"/>
<stop offset="0.8558" stop-color="#FFAD2B"/>
<stop offset="1" stop-color="#FFA325"/>
</linearGradient>
<linearGradient id="paint16_linear_67_4524" x1="60.0604" y1="24.8675" x2="60.0604" y2="26.8318" gradientUnits="userSpaceOnUse">
<stop stop-color="#FF7044"/>
<stop offset="1" stop-color="#F82814"/>
</linearGradient>
<linearGradient id="paint17_linear_67_4524" x1="18.4333" y1="25.8636" x2="24.4141" y2="25.8635" gradientUnits="userSpaceOnUse">
<stop stop-color="#FFD945"/>
<stop offset="0.3043" stop-color="#FFCD3E"/>
<stop offset="0.8558" stop-color="#FFAD2B"/>
<stop offset="1" stop-color="#FFA325"/>
</linearGradient>
<linearGradient id="paint18_linear_67_4524" x1="20.8587" y1="25.8105" x2="18.8944" y2="25.8105" gradientUnits="userSpaceOnUse">
<stop stop-color="#FF7044"/>
<stop offset="1" stop-color="#F82814"/>
</linearGradient>
<linearGradient id="paint19_linear_67_4524" x1="58.5935" y1="66.0244" x2="64.5744" y2="66.0243" gradientUnits="userSpaceOnUse">
<stop stop-color="#FFD945"/>
<stop offset="0.3043" stop-color="#FFCD3E"/>
<stop offset="0.8558" stop-color="#FFAD2B"/>
<stop offset="1" stop-color="#FFA325"/>
</linearGradient>
<linearGradient id="paint20_linear_67_4524" x1="61.0199" y1="65.9713" x2="59.0556" y2="65.9713" gradientUnits="userSpaceOnUse">
<stop stop-color="#FF7044"/>
<stop offset="1" stop-color="#F82814"/>
</linearGradient>
<linearGradient id="paint21_linear_67_4524" x1="29.9276" y1="73.5084" x2="27.6182" y2="67.9929" gradientUnits="userSpaceOnUse">
<stop stop-color="#FFD945"/>
<stop offset="0.3043" stop-color="#FFCD3E"/>
<stop offset="0.8558" stop-color="#FFAD2B"/>
<stop offset="1" stop-color="#FFA325"/>
</linearGradient>
<linearGradient id="paint22_linear_67_4524" x1="28.8311" y1="71.2714" x2="29.5896" y2="73.0827" gradientUnits="userSpaceOnUse">
<stop stop-color="#FF7044"/>
<stop offset="1" stop-color="#F82814"/>
</linearGradient>
<linearGradient id="paint23_linear_67_4524" x1="51.4581" y1="20.9669" x2="49.1487" y2="15.4515" gradientUnits="userSpaceOnUse">
<stop stop-color="#FFD945"/>
<stop offset="0.3043" stop-color="#FFCD3E"/>
<stop offset="0.8558" stop-color="#FFAD2B"/>
<stop offset="1" stop-color="#FFA325"/>
</linearGradient>
<linearGradient id="paint24_linear_67_4524" x1="50.362" y1="18.7299" x2="51.1204" y2="20.5412" gradientUnits="userSpaceOnUse">
<stop stop-color="#FF7044"/>
<stop offset="1" stop-color="#F82814"/>
</linearGradient>
<linearGradient id="paint25_linear_67_4524" x1="12.3301" y1="35.7742" x2="17.8454" y2="33.4647" gradientUnits="userSpaceOnUse">
<stop stop-color="#FFD945"/>
<stop offset="0.3043" stop-color="#FFCD3E"/>
<stop offset="0.8558" stop-color="#FFAD2B"/>
<stop offset="1" stop-color="#FFA325"/>
</linearGradient>
<linearGradient id="paint26_linear_67_4524" x1="14.567" y1="34.6781" x2="12.7555" y2="35.4366" gradientUnits="userSpaceOnUse">
<stop stop-color="#FF7044"/>
<stop offset="1" stop-color="#F82814"/>
</linearGradient>
<linearGradient id="paint27_linear_67_4524" x1="64.871" y1="57.3047" x2="70.3864" y2="54.9954" gradientUnits="userSpaceOnUse">
<stop stop-color="#FFD945"/>
<stop offset="0.3043" stop-color="#FFCD3E"/>
<stop offset="0.8558" stop-color="#FFAD2B"/>
<stop offset="1" stop-color="#FFA325"/>
</linearGradient>
<linearGradient id="paint28_linear_67_4524" x1="67.1084" y1="56.2087" x2="65.2972" y2="56.9671" gradientUnits="userSpaceOnUse">
<stop stop-color="#FF7044"/>
<stop offset="1" stop-color="#F82814"/>
</linearGradient>
<linearGradient id="paint29_linear_67_4524" x1="13.1671" y1="58.1783" x2="15.4385" y2="52.6415" gradientUnits="userSpaceOnUse">
<stop stop-color="#FFD945"/>
<stop offset="0.3043" stop-color="#FFCD3E"/>
<stop offset="0.8558" stop-color="#FFAD2B"/>
<stop offset="1" stop-color="#FFA325"/>
</linearGradient>
<linearGradient id="paint30_linear_67_4524" x1="14.2214" y1="56.0652" x2="13.4754" y2="57.8836" gradientUnits="userSpaceOnUse">
<stop stop-color="#FF7044"/>
<stop offset="1" stop-color="#F82814"/>
</linearGradient>
<linearGradient id="paint31_linear_67_4524" x1="65.5968" y1="36.2503" x2="67.8683" y2="30.7136" gradientUnits="userSpaceOnUse">
<stop stop-color="#FFD945"/>
<stop offset="0.3043" stop-color="#FFCD3E"/>
<stop offset="0.8558" stop-color="#FFAD2B"/>
<stop offset="1" stop-color="#FFA325"/>
</linearGradient>
<linearGradient id="paint32_linear_67_4524" x1="66.6511" y1="34.1373" x2="65.9051" y2="35.9556" gradientUnits="userSpaceOnUse">
<stop stop-color="#FF7044"/>
<stop offset="1" stop-color="#F82814"/>
</linearGradient>
<linearGradient id="paint33_linear_67_4524" x1="27.8459" y1="19.1819" x2="33.3826" y2="21.4531" gradientUnits="userSpaceOnUse">
<stop stop-color="#FFD945"/>
<stop offset="0.3043" stop-color="#FFCD3E"/>
<stop offset="0.8558" stop-color="#FFAD2B"/>
<stop offset="1" stop-color="#FFA325"/>
</linearGradient>
<linearGradient id="paint34_linear_67_4524" x1="29.9596" y1="20.236" x2="28.1411" y2="19.49" gradientUnits="userSpaceOnUse">
<stop stop-color="#FF7044"/>
<stop offset="1" stop-color="#F82814"/>
</linearGradient>
<linearGradient id="paint35_linear_67_4524" x1="49.7741" y1="71.6112" x2="55.3107" y2="73.8825" gradientUnits="userSpaceOnUse">
<stop stop-color="#FFD945"/>
<stop offset="0.3043" stop-color="#FFCD3E"/>
<stop offset="0.8558" stop-color="#FFAD2B"/>
<stop offset="1" stop-color="#FFA325"/>
</linearGradient>
<linearGradient id="paint36_linear_67_4524" x1="51.8874" y1="72.6654" x2="50.0691" y2="71.9195" gradientUnits="userSpaceOnUse">
<stop stop-color="#FF7044"/>
<stop offset="1" stop-color="#F82814"/>
</linearGradient>
<linearGradient id="paint37_linear_67_4524" x1="42.7234" y1="51.1889" x2="7.28452" y2="-17.3382" gradientUnits="userSpaceOnUse">
<stop stop-color="white" stop-opacity="0"/>
<stop offset="1" stop-color="white"/>
</linearGradient>
<linearGradient id="paint38_linear_67_4524" x1="34.5033" y1="40.8271" x2="19.7821" y2="27.6285" gradientUnits="userSpaceOnUse">
<stop stop-color="#E87264" stop-opacity="0"/>
<stop offset="1" stop-color="#FF7044"/>
</linearGradient>
<linearGradient id="paint39_linear_67_4524" x1="51.217" y1="36.3213" x2="41.22" y2="19.0439" gradientUnits="userSpaceOnUse">
<stop stop-color="#E87264" stop-opacity="0"/>
<stop offset="1" stop-color="#FF7044"/>
</linearGradient>
<linearGradient id="paint40_linear_67_4524" x1="34.418" y1="13.3399" x2="56.1786" y2="35.8849" gradientUnits="userSpaceOnUse">
<stop stop-color="#FFD945"/>
<stop offset="1" stop-color="#FBB27E"/>
</linearGradient>
<linearGradient id="paint41_linear_67_4524" x1="31.0853" y1="14.5228" x2="44.6197" y2="28.9595" gradientUnits="userSpaceOnUse">
<stop stop-color="#FBB27E" stop-opacity="0"/>
<stop offset="1" stop-color="#FF7044"/>
</linearGradient>
<linearGradient id="paint42_linear_67_4524" x1="30.7149" y1="24.2835" x2="39.9866" y2="24.2835" gradientUnits="userSpaceOnUse">
<stop stop-color="#FFD945" stop-opacity="0"/>
<stop offset="1" stop-color="#FBED21"/>
</linearGradient>
<linearGradient id="paint43_linear_67_4524" x1="37.7879" y1="19.8949" x2="53.6282" y2="37.7403" gradientUnits="userSpaceOnUse">
<stop stop-color="#E87264" stop-opacity="0"/>
<stop offset="1" stop-color="#FF7044"/>
</linearGradient>
<linearGradient id="paint44_linear_67_4524" x1="28.7159" y1="24.6341" x2="49.0676" y2="23.9322" gradientUnits="userSpaceOnUse">
<stop stop-color="#E87264" stop-opacity="0"/>
<stop offset="1" stop-color="#FF7044"/>
</linearGradient>
<linearGradient id="paint45_linear_67_4524" x1="46.9075" y1="32.832" x2="41.6943" y2="9.67325" gradientUnits="userSpaceOnUse">
<stop stop-color="#FFD945" stop-opacity="0"/>
<stop offset="1" stop-color="#FBED21"/>
</linearGradient>
<linearGradient id="paint46_linear_67_4524" x1="32.1574" y1="13.0254" x2="35.2653" y2="26.4596" gradientUnits="userSpaceOnUse">
<stop stop-color="#FFD945"/>
<stop offset="1" stop-color="#FBB27E"/>
</linearGradient>
<linearGradient id="paint47_linear_67_4524" x1="45.3904" y1="12.8441" x2="26.1416" y2="5.22477" gradientUnits="userSpaceOnUse">
<stop stop-color="#E87264" stop-opacity="0"/>
<stop offset="1" stop-color="#FF7044"/>
</linearGradient>
<linearGradient id="paint48_linear_67_4524" x1="37.0336" y1="6.5258" x2="46.9588" y2="23.4689" gradientUnits="userSpaceOnUse">
<stop stop-color="#FBB27E" stop-opacity="0"/>
<stop offset="1" stop-color="#FF7044"/>
</linearGradient>
<linearGradient id="paint49_linear_67_4524" x1="49.346" y1="12.9289" x2="30.8993" y2="29.2706" gradientUnits="userSpaceOnUse">
<stop stop-color="#FFD945" stop-opacity="0"/>
<stop offset="1" stop-color="#FBED21"/>
</linearGradient>
<linearGradient id="paint50_linear_67_4524" x1="46.0312" y1="19.5704" x2="52.4475" y2="1.12347" gradientUnits="userSpaceOnUse">
<stop stop-color="#E87264" stop-opacity="0"/>
<stop offset="1" stop-color="#FF7044"/>
</linearGradient>
<linearGradient id="paint51_linear_67_4524" x1="40.5919" y1="19.5663" x2="31.7404" y2="11.6304" gradientUnits="userSpaceOnUse">
<stop stop-color="#FFD945" stop-opacity="0"/>
<stop offset="1" stop-color="#FBED21"/>
</linearGradient>
<linearGradient id="paint52_linear_67_4524" x1="16.1706" y1="22.5504" x2="32.4057" y2="39.3707" gradientUnits="userSpaceOnUse">
<stop stop-color="#FFD945"/>
<stop offset="1" stop-color="#FBB27E"/>
</linearGradient>
<linearGradient id="paint53_linear_67_4524" x1="13.6846" y1="23.4329" x2="23.7824" y2="34.2039" gradientUnits="userSpaceOnUse">
<stop stop-color="#FBB27E" stop-opacity="0"/>
<stop offset="1" stop-color="#FF7044"/>
</linearGradient>
<linearGradient id="paint54_linear_67_4524" x1="13.4083" y1="30.7152" x2="20.3256" y2="30.7152" gradientUnits="userSpaceOnUse">
<stop stop-color="#FFD945" stop-opacity="0"/>
<stop offset="1" stop-color="#FBED21"/>
</linearGradient>
<linearGradient id="paint55_linear_67_4524" x1="18.6846" y1="27.4409" x2="30.5026" y2="40.755" gradientUnits="userSpaceOnUse">
<stop stop-color="#E87264" stop-opacity="0"/>
<stop offset="1" stop-color="#FF7044"/>
</linearGradient>
<linearGradient id="paint56_linear_67_4524" x1="11.9166" y1="30.9768" x2="27.1006" y2="30.4532" gradientUnits="userSpaceOnUse">
<stop stop-color="#E87264" stop-opacity="0"/>
<stop offset="1" stop-color="#FF7044"/>
</linearGradient>
<linearGradient id="paint57_linear_67_4524" x1="25.4887" y1="37.093" x2="21.5993" y2="19.8149" gradientUnits="userSpaceOnUse">
<stop stop-color="#FFD945" stop-opacity="0"/>
<stop offset="1" stop-color="#FBED21"/>
</linearGradient>
<linearGradient id="paint58_linear_67_4524" x1="14.4838" y1="22.3159" x2="16.8025" y2="32.3386" gradientUnits="userSpaceOnUse">
<stop stop-color="#FFD945"/>
<stop offset="1" stop-color="#FBB27E"/>
</linearGradient>
<linearGradient id="paint59_linear_67_4524" x1="24.3566" y1="22.1806" x2="9.9955" y2="16.4958" gradientUnits="userSpaceOnUse">
<stop stop-color="#E87264" stop-opacity="0"/>
<stop offset="1" stop-color="#FF7044"/>
</linearGradient>
<linearGradient id="paint60_linear_67_4524" x1="18.1222" y1="17.4667" x2="25.527" y2="30.1075" gradientUnits="userSpaceOnUse">
<stop stop-color="#FBB27E" stop-opacity="0"/>
<stop offset="1" stop-color="#FF7044"/>
</linearGradient>
<linearGradient id="paint61_linear_67_4524" x1="27.3078" y1="22.2439" x2="13.5452" y2="34.4359" gradientUnits="userSpaceOnUse">
<stop stop-color="#FFD945" stop-opacity="0"/>
<stop offset="1" stop-color="#FBED21"/>
</linearGradient>
<linearGradient id="paint62_linear_67_4524" x1="24.8349" y1="27.1987" x2="29.6219" y2="13.4361" gradientUnits="userSpaceOnUse">
<stop stop-color="#E87264" stop-opacity="0"/>
<stop offset="1" stop-color="#FF7044"/>
</linearGradient>
<linearGradient id="paint63_linear_67_4524" x1="20.7768" y1="27.1958" x2="14.173" y2="21.2751" gradientUnits="userSpaceOnUse">
<stop stop-color="#FFD945" stop-opacity="0"/>
<stop offset="1" stop-color="#FBED21"/>
</linearGradient>
<linearGradient id="paint64_linear_67_4524" x1="65.9153" y1="42.6289" x2="58.2248" y2="32.0635" gradientUnits="userSpaceOnUse">
<stop stop-color="#E87264" stop-opacity="0"/>
<stop offset="1" stop-color="#FF7044"/>
</linearGradient>
<linearGradient id="paint65_linear_67_4524" x1="55.4997" y1="22.5504" x2="71.7348" y2="39.3707" gradientUnits="userSpaceOnUse">
<stop stop-color="#FFD945"/>
<stop offset="1" stop-color="#FBB27E"/>
</linearGradient>
<linearGradient id="paint66_linear_67_4524" x1="53.0137" y1="23.4329" x2="63.1115" y2="34.2039" gradientUnits="userSpaceOnUse">
<stop stop-color="#FBB27E" stop-opacity="0"/>
<stop offset="1" stop-color="#FF7044"/>
</linearGradient>
<linearGradient id="paint67_linear_67_4524" x1="52.7374" y1="30.7152" x2="59.6547" y2="30.7152" gradientUnits="userSpaceOnUse">
<stop stop-color="#FFD945" stop-opacity="0"/>
<stop offset="1" stop-color="#FBED21"/>
</linearGradient>
<linearGradient id="paint68_linear_67_4524" x1="58.0147" y1="27.4409" x2="69.8327" y2="40.7549" gradientUnits="userSpaceOnUse">
<stop stop-color="#E87264" stop-opacity="0"/>
<stop offset="1" stop-color="#FF7044"/>
</linearGradient>
<linearGradient id="paint69_linear_67_4524" x1="51.2457" y1="30.9768" x2="66.4295" y2="30.4532" gradientUnits="userSpaceOnUse">
<stop stop-color="#E87264" stop-opacity="0"/>
<stop offset="1" stop-color="#FF7044"/>
</linearGradient>
<linearGradient id="paint70_linear_67_4524" x1="64.8188" y1="37.093" x2="60.9294" y2="19.8149" gradientUnits="userSpaceOnUse">
<stop stop-color="#FFD945" stop-opacity="0"/>
<stop offset="1" stop-color="#FBED21"/>
</linearGradient>
<linearGradient id="paint71_linear_67_4524" x1="53.8129" y1="22.3159" x2="56.1316" y2="32.3386" gradientUnits="userSpaceOnUse">
<stop stop-color="#FFD945"/>
<stop offset="1" stop-color="#FBB27E"/>
</linearGradient>
<linearGradient id="paint72_linear_67_4524" x1="63.6867" y1="22.1806" x2="49.3256" y2="16.4958" gradientUnits="userSpaceOnUse">
<stop stop-color="#E87264" stop-opacity="0"/>
<stop offset="1" stop-color="#FF7044"/>
</linearGradient>
<linearGradient id="paint73_linear_67_4524" x1="57.4513" y1="17.4667" x2="64.8561" y2="30.1074" gradientUnits="userSpaceOnUse">
<stop stop-color="#FBB27E" stop-opacity="0"/>
<stop offset="1" stop-color="#FF7044"/>
</linearGradient>
<linearGradient id="paint74_linear_67_4524" x1="66.6379" y1="22.2439" x2="52.8751" y2="34.4359" gradientUnits="userSpaceOnUse">
<stop stop-color="#FFD945" stop-opacity="0"/>
<stop offset="1" stop-color="#FBED21"/>
</linearGradient>
<linearGradient id="paint75_linear_67_4524" x1="64.164" y1="27.1987" x2="68.9512" y2="13.4361" gradientUnits="userSpaceOnUse">
<stop stop-color="#E87264" stop-opacity="0"/>
<stop offset="1" stop-color="#FF7044"/>
</linearGradient>
<linearGradient id="paint76_linear_67_4524" x1="60.1059" y1="27.1958" x2="53.502" y2="21.2751" gradientUnits="userSpaceOnUse">
<stop stop-color="#FFD945" stop-opacity="0"/>
<stop offset="1" stop-color="#FBED21"/>
</linearGradient>
<linearGradient id="paint77_linear_67_4524" x1="43.4828" y1="67.0769" x2="31.1936" y2="54.7875" gradientUnits="userSpaceOnUse">
<stop stop-color="#FFD945"/>
<stop offset="1" stop-color="#FBB27E"/>
</linearGradient>
<linearGradient id="paint78_linear_67_4524" x1="37.8665" y1="61.9806" x2="43.0775" y2="65.9222" gradientUnits="userSpaceOnUse">
<stop stop-color="#91F27F"/>
<stop offset="1" stop-color="#00B302"/>
</linearGradient>
<linearGradient id="paint79_linear_67_4524" x1="40.6426" y1="64.3261" x2="38.4674" y2="61.8102" gradientUnits="userSpaceOnUse">
<stop stop-color="#91F27F" stop-opacity="0"/>
<stop offset="1" stop-color="#FFED82"/>
</linearGradient>
<linearGradient id="paint80_linear_67_4524" x1="40.3271" y1="63.586" x2="36.5531" y2="57.4229" gradientUnits="userSpaceOnUse">
<stop stop-color="#005A01" stop-opacity="0"/>
<stop offset="1" stop-color="#005A01"/>
</linearGradient>
<linearGradient id="paint81_linear_67_4524" x1="40.6803" y1="64.8025" x2="37.9475" y2="60.3401" gradientUnits="userSpaceOnUse">
<stop stop-color="#005A01" stop-opacity="0"/>
<stop offset="1" stop-color="#005A01"/>
</linearGradient>
<linearGradient id="paint82_linear_67_4524" x1="34.487" y1="63.3497" x2="23.26" y2="52.1227" gradientUnits="userSpaceOnUse">
<stop stop-color="#FFD945"/>
<stop offset="1" stop-color="#FBB27E"/>
</linearGradient>
<linearGradient id="paint83_linear_67_4524" x1="30.6433" y1="59.8833" x2="34.4208" y2="62.7406" gradientUnits="userSpaceOnUse">
<stop stop-color="#91F27F"/>
<stop offset="1" stop-color="#00B302"/>
</linearGradient>
<linearGradient id="paint84_linear_67_4524" x1="32.4774" y1="61.4177" x2="31.1671" y2="59.0329" gradientUnits="userSpaceOnUse">
<stop stop-color="#91F27F" stop-opacity="0"/>
<stop offset="1" stop-color="#FFED82"/>
</linearGradient>
<linearGradient id="paint85_linear_67_4524" x1="32.4271" y1="61.0471" x2="29.6911" y2="56.5793" gradientUnits="userSpaceOnUse">
<stop stop-color="#005A01" stop-opacity="0"/>
<stop offset="1" stop-color="#005A01"/>
</linearGradient>
<linearGradient id="paint86_linear_67_4524" x1="32.6829" y1="61.929" x2="30.7019" y2="58.694" gradientUnits="userSpaceOnUse">
<stop stop-color="#005A01" stop-opacity="0"/>
<stop offset="1" stop-color="#005A01"/>
</linearGradient>
<linearGradient id="paint87_linear_67_4524" x1="50.2559" y1="63.4987" x2="42.9432" y2="56.1859" gradientUnits="userSpaceOnUse">
<stop stop-color="#FFD945"/>
<stop offset="1" stop-color="#FBB27E"/>
</linearGradient>
<linearGradient id="paint88_linear_67_4524" x1="46.2634" y1="59.8833" x2="50.0408" y2="62.7406" gradientUnits="userSpaceOnUse">
<stop stop-color="#91F27F"/>
<stop offset="1" stop-color="#00B302"/>
</linearGradient>
<linearGradient id="paint89_linear_67_4524" x1="48.3598" y1="61.7043" x2="46.63" y2="59.5816" gradientUnits="userSpaceOnUse">
<stop stop-color="#91F27F" stop-opacity="0"/>
<stop offset="1" stop-color="#FFED82"/>
</linearGradient>
<linearGradient id="paint90_linear_67_4524" x1="48.0472" y1="61.0471" x2="45.3112" y2="56.5793" gradientUnits="userSpaceOnUse">
<stop stop-color="#005A01" stop-opacity="0"/>
<stop offset="1" stop-color="#005A01"/>
</linearGradient>
<linearGradient id="paint91_linear_67_4524" x1="48.3028" y1="61.929" x2="46.322" y2="58.694" gradientUnits="userSpaceOnUse">
<stop stop-color="#005A01" stop-opacity="0"/>
<stop offset="1" stop-color="#005A01"/>
</linearGradient>
<linearGradient id="paint92_linear_67_4524" x1="40" y1="62.9522" x2="40" y2="55.5126" gradientUnits="userSpaceOnUse">
<stop stop-color="#E87264" stop-opacity="0"/>
<stop offset="1" stop-color="#FF7044"/>
</linearGradient>
<linearGradient id="paint93_linear_67_4524" x1="36.3173" y1="35.9862" x2="45.2334" y2="66.7876" gradientUnits="userSpaceOnUse">
<stop stop-color="#E4F2FF"/>
<stop offset="1" stop-color="#B2CBFF"/>
</linearGradient>
<linearGradient id="paint94_linear_67_4524" x1="39.9995" y1="56.0074" x2="39.9995" y2="30.1172" gradientUnits="userSpaceOnUse">
<stop stop-color="#E4F2FF"/>
<stop offset="1" stop-color="#B2CBFF"/>
</linearGradient>
<linearGradient id="paint95_linear_67_4524" x1="12.0904" y1="55.8118" x2="18.3649" y2="71.6551" gradientUnits="userSpaceOnUse">
<stop stop-color="#FF7044"/>
<stop offset="1" stop-color="#F82814"/>
</linearGradient>
<linearGradient id="paint96_linear_67_4524" x1="25.3619" y1="50.5556" x2="31.6364" y2="66.3989" gradientUnits="userSpaceOnUse">
<stop stop-color="#FF7044"/>
<stop offset="1" stop-color="#F82814"/>
</linearGradient>
<linearGradient id="paint97_linear_67_4524" x1="38.9132" y1="45.1887" x2="45.1877" y2="61.032" gradientUnits="userSpaceOnUse">
<stop stop-color="#FF7044"/>
<stop offset="1" stop-color="#F82814"/>
</linearGradient>
<linearGradient id="paint98_linear_67_4524" x1="53.2587" y1="39.5073" x2="59.5332" y2="55.3504" gradientUnits="userSpaceOnUse">
<stop stop-color="#FF7044"/>
<stop offset="1" stop-color="#F82814"/>
</linearGradient>
<linearGradient id="paint99_linear_67_4524" x1="65.4047" y1="34.6971" x2="71.6792" y2="50.5402" gradientUnits="userSpaceOnUse">
<stop stop-color="#FF7044"/>
<stop offset="1" stop-color="#F82814"/>
</linearGradient>
<clipPath id="clip0_67_4524">
<rect width="80" height="80" fill="white"/>
</clipPath>
</defs>
</svg>
