<svg width="80" height="80" viewBox="0 0 80 80" fill="none" xmlns="http://www.w3.org/2000/svg">
<g clip-path="url(#clip0_67_4679)">
<path d="M69.175 17.4686C68.9046 17.4686 68.6338 17.4046 68.3918 17.2835C67.6605 16.9175 66.2323 16.1326 64.885 14.9884C63.1323 13.5001 62.0936 11.9025 61.7974 10.2401C61.5673 8.9486 61.8958 7.63033 62.6986 6.62311C63.4421 5.69025 64.4955 5.14515 65.665 5.08821C65.7338 5.08492 65.8036 5.08319 65.8721 5.08319C66.9678 5.08319 68.0021 5.50547 68.7847 6.27221C68.9261 6.41072 69.0564 6.5577 69.175 6.7119C69.2938 6.5577 69.4241 6.41072 69.5654 6.27221C70.3479 5.50547 71.3822 5.08319 72.4781 5.08319C72.5466 5.08319 72.6164 5.08492 72.6851 5.08821C73.8547 5.14515 74.9082 5.69041 75.6516 6.62327C76.4544 7.63049 76.7827 8.94876 76.5526 10.2402C76.2564 11.9026 75.2177 13.5003 73.465 14.9886C72.1179 16.1328 70.6897 16.9175 69.9582 17.2837C69.7162 17.4046 69.4454 17.4686 69.175 17.4686Z" fill="url(#paint0_linear_67_4679)"/>
<path d="M75.6514 6.62311C75.3727 6.27346 75.0505 5.97825 74.6949 5.7428C75.344 6.70672 75.5957 7.9017 75.3868 9.07441C75.0906 10.7368 74.0519 12.3345 72.2993 13.8228C70.9521 14.967 69.5239 15.7517 68.7926 16.1179C68.5506 16.239 68.2797 16.303 68.0094 16.303C67.7389 16.303 67.4682 16.239 67.2262 16.1179C66.4949 15.7519 65.0666 14.967 63.7195 13.8228C63.6618 13.7739 63.605 13.7246 63.5488 13.6753C63.9347 14.1215 64.38 14.5594 64.8853 14.9884C66.2326 16.1326 67.6607 16.9174 68.3921 17.2835C68.6342 17.4046 68.9049 17.4686 69.1753 17.4686C69.4458 17.4686 69.7165 17.4046 69.9586 17.2835C70.69 16.9175 72.1181 16.1326 73.4654 14.9884C75.218 13.5 76.2567 11.9025 76.5529 10.2401C76.7826 8.94876 76.4542 7.63033 75.6514 6.62311Z" fill="url(#paint1_linear_67_4679)"/>
<path d="M72.6849 5.08821C72.6162 5.08492 72.5464 5.08319 72.4779 5.08319C71.3822 5.08319 70.3477 5.50547 69.5652 6.27221C69.4239 6.41072 69.2935 6.5577 69.1748 6.7119V17.4688C69.4452 17.4688 69.716 17.4048 69.958 17.2837C70.6895 16.9177 72.1176 16.1328 73.4648 14.9886C75.2175 13.5001 76.2562 11.9026 76.5524 10.2402C76.7825 8.94876 76.454 7.63049 75.6514 6.62327C74.908 5.69025 73.8543 5.14515 72.6849 5.08821Z" fill="url(#paint2_linear_67_4679)"/>
<path d="M49.9642 61.0257C49.201 61.0257 48.4366 60.845 47.7537 60.5032C45.6897 59.4703 41.6591 57.2552 37.8569 54.0264C32.9108 49.8259 29.9791 45.3172 29.1431 40.6254C28.4939 36.9809 29.4208 33.2602 31.6864 30.4176C33.7846 27.785 36.7577 26.2466 40.0581 26.0857C40.2522 26.0762 40.4489 26.0714 40.6424 26.0714C43.7347 26.0714 46.6539 27.2631 48.8622 29.427C49.2611 29.8179 49.6288 30.2326 49.9639 30.6679C50.2989 30.2326 50.6668 29.8177 51.0657 29.4268C53.274 27.2629 56.1932 26.0712 59.2856 26.0712C59.4792 26.0712 59.6759 26.0761 59.8699 26.0855C63.1704 26.2464 66.1436 27.7848 68.2418 30.4176C70.5074 33.2602 71.4341 36.9807 70.7849 40.6253C69.9491 45.3169 67.0175 49.8256 62.0713 54.0262C58.2693 57.2551 54.2388 59.4701 52.1745 60.5031C51.4917 60.845 50.7273 61.0257 49.9642 61.0257Z" fill="url(#paint3_linear_67_4679)"/>
<path d="M49.9645 58.4494C49.418 58.4494 48.8704 58.3245 48.3811 58.0881C46.468 57.1641 42.7336 55.1835 39.217 52.3013C34.7314 48.6246 32.0792 44.7134 31.3337 40.6761C30.7755 37.6513 31.5705 34.5659 33.5149 32.2111C35.2975 30.0525 37.8202 28.7912 40.618 28.6596C40.7835 28.6517 40.9513 28.6478 41.1165 28.6478C43.7488 28.6478 46.2338 29.627 48.1137 31.4048C48.4512 31.7241 48.7672 32.0676 49.0528 32.4259L49.9642 33.5689L50.8756 32.426C51.1617 32.0674 51.4777 31.7237 51.815 31.4048C53.6947 29.6271 56.1797 28.6481 58.8123 28.6481C58.9775 28.6481 59.1454 28.6521 59.3108 28.6599C62.1088 28.7915 64.6315 30.0528 66.4141 32.2116C68.3585 34.5663 69.1535 37.6516 68.5951 40.6764C67.8498 44.7137 65.1976 48.6249 60.7119 52.3016C57.1951 55.1843 53.4608 57.1647 51.5479 58.0885C51.0588 58.3244 50.5112 58.4494 49.9645 58.4494Z" fill="url(#paint4_linear_67_4679)"/>
<path d="M68.2418 30.4177C67.4553 29.4309 66.546 28.5978 65.5424 27.9333C67.3744 30.654 68.0847 34.0261 67.495 37.3357C66.6592 42.0273 63.7276 46.536 58.7814 50.7366C54.9794 53.9655 50.949 56.1806 48.8847 57.2135C48.2017 57.5553 47.4373 57.736 46.6741 57.736C45.911 57.736 45.1466 57.5553 44.4636 57.2135C42.3996 56.1806 38.369 53.9655 34.5668 50.7366C34.404 50.5983 34.2435 50.4596 34.085 50.3206C35.1739 51.5795 36.431 52.8159 37.8566 54.0265C41.6586 57.2555 45.6894 59.4705 47.7534 60.5034C48.4363 60.8452 49.2007 61.0259 49.9639 61.0259C50.727 61.0259 51.4914 60.8454 52.1744 60.5034C54.2385 59.4705 58.2691 57.2554 62.0712 54.0265C67.0172 49.8261 69.949 45.3172 70.7847 40.6256C71.4343 36.9809 70.5074 33.2603 68.2418 30.4177Z" fill="url(#paint5_linear_67_4679)"/>
<path d="M59.8698 26.0857C59.6757 26.0763 59.479 26.0714 59.2854 26.0714C56.193 26.0714 53.2738 27.2631 51.0655 29.427C50.6666 29.8179 50.2989 30.2327 49.9639 30.668V61.0258C50.727 61.0258 51.4914 60.845 52.1744 60.5032C54.2385 59.4703 58.2691 57.2552 62.0712 54.0264C67.0172 49.8259 69.949 45.3171 70.7847 40.6254C71.4341 36.9809 70.5072 33.2603 68.2417 30.4178C66.1435 27.785 63.1703 26.2465 59.8698 26.0857Z" fill="url(#paint6_linear_67_4679)"/>
<path d="M68.2428 30.4178C66.1446 27.785 63.1714 26.2466 59.8709 26.0857C59.6768 26.0763 59.4801 26.0714 59.2866 26.0714C56.1942 26.0714 53.2749 27.2631 51.0666 29.427C50.6677 29.8179 50.3 30.2328 49.9648 30.6681C49.6298 30.2328 49.2621 29.8181 48.8632 29.4272C46.6549 27.2633 43.7356 26.0716 40.6434 26.0716C40.4498 26.0716 40.2531 26.0764 40.0591 26.0858C36.7585 26.2468 33.7855 27.7851 31.6873 30.4178C29.4218 33.2604 28.4949 36.9811 29.1441 40.6256C29.98 45.3174 32.9116 49.8261 37.8578 54.0265C39.764 55.6454 41.7275 57.0093 43.472 58.0971L69.4066 32.1625C69.0699 31.5525 68.6818 30.9685 68.2428 30.4178Z" fill="url(#paint7_linear_67_4679)"/>
<path d="M68.6328 38.6451C68.2231 38.6451 67.8126 38.5481 67.446 38.3646C66.3378 37.8099 64.1737 36.6208 62.1321 34.887C59.4764 32.6316 57.9023 30.2107 57.4535 27.6917C57.105 25.7348 57.6027 23.737 58.819 22.2107C59.9456 20.7972 61.542 19.9712 63.3141 19.8848C63.4182 19.8797 63.5238 19.8771 63.6278 19.8771C65.2882 19.8771 66.8556 20.5169 68.0413 21.6788C68.2554 21.8887 68.4529 22.1114 68.6328 22.3452C68.8128 22.1114 69.0102 21.8887 69.2244 21.6788C70.4101 20.5169 71.9775 19.8771 73.6379 19.8771C73.7419 19.8771 73.8474 19.8796 73.9516 19.8848C75.7237 19.9712 77.3202 20.7972 78.4468 22.2107C79.6633 23.737 80.1608 25.7346 79.8121 27.6915C79.3633 30.2106 77.7892 32.6314 75.1335 34.8868C73.0921 36.6204 70.928 37.8098 69.8197 38.3644C69.4529 38.5481 69.0426 38.6451 68.6328 38.6451Z" fill="url(#paint8_linear_67_4679)"/>
<path d="M78.447 22.2107C78.0247 21.6808 77.5364 21.2336 76.9976 20.8768C77.9813 22.3375 78.3626 24.1481 78.0461 25.9251C77.5973 28.4441 76.0232 30.865 73.3675 33.1204C71.3261 34.854 69.162 36.0434 68.0536 36.598C67.6869 36.7816 67.2765 36.8785 66.8668 36.8785C66.4571 36.8785 66.0466 36.7816 65.68 36.598C64.5717 36.0434 62.4077 34.8542 60.3661 33.1204C60.2786 33.0462 60.1924 32.9717 60.1074 32.897C60.692 33.5729 61.367 34.2368 62.1325 34.8868C64.1739 36.6206 66.3382 37.8098 67.4464 38.3645C67.8131 38.548 68.2235 38.6449 68.6332 38.6449C69.0429 38.6449 69.4535 38.548 69.82 38.3645C70.9284 37.8098 73.0925 36.6205 75.1339 34.8868C77.7896 32.6314 79.3637 30.2106 79.8125 27.6915C80.1612 25.7347 79.6635 23.737 78.447 22.2107Z" fill="url(#paint9_linear_67_4679)"/>
<path d="M73.9516 19.8848C73.8474 19.8797 73.7418 19.8771 73.6378 19.8771C71.9774 19.8771 70.4101 20.5169 69.2243 21.6788C69.0102 21.8887 68.8127 22.1114 68.6328 22.3452V38.6452C69.0425 38.6452 69.453 38.5483 69.8196 38.3648C70.928 37.8101 73.0921 36.6208 75.1335 34.8871C77.7892 32.6317 79.3633 30.2109 79.8121 27.6918C80.1608 25.735 79.6631 23.7373 78.4468 22.211C77.32 20.7971 75.7236 19.971 73.9516 19.8848Z" fill="url(#paint10_linear_67_4679)"/>
<path d="M69.6602 79.3853H26.3072C24.5562 79.3853 23.1367 77.9658 23.1367 76.2148V52.7265C23.1367 50.9754 24.5562 49.556 26.3072 49.556H69.6602C71.4112 49.556 72.8307 50.9754 72.8307 52.7265V76.2146C72.8308 77.9658 71.4114 79.3853 69.6602 79.3853Z" fill="url(#paint11_linear_67_4679)"/>
<path d="M51.7367 49.7986L51.6084 49.556H48.6309V79.3853H69.6604C71.4114 79.3853 72.8309 77.9658 72.8309 76.2148V70.8927L51.7367 49.7986Z" fill="url(#paint12_linear_67_4679)"/>
<path d="M23.1367 65.9265V76.2146C23.1367 77.9657 24.5562 79.3851 26.3072 79.3851H69.6602C71.4112 79.3851 72.8307 77.9657 72.8307 76.2146V65.9265H23.1367Z" fill="url(#paint13_linear_67_4679)"/>
<path d="M50.8791 80H45.0879C44.6143 80 44.2305 79.6162 44.2305 79.1426V49.7986C44.2305 49.3251 44.6143 48.9412 45.0879 48.9412H50.8791C51.3527 48.9412 51.7365 49.3251 51.7365 49.7986V79.1428C51.7365 79.6162 51.3527 80 50.8791 80Z" fill="url(#paint14_linear_67_4679)"/>
<path d="M55.6477 18.4113L18.4899 55.5691C16.989 57.07 14.5557 57.07 13.0549 55.5691L9.74381 51.6797C8.24295 50.1789 8.24295 47.7456 9.74381 46.2448L46.9016 9.08695C48.4025 7.58609 50.8357 7.58609 52.3366 9.08695L55.6477 12.9764C57.1485 14.4772 57.1485 16.9106 55.6477 18.4113Z" fill="url(#paint15_linear_67_4679)"/>
<path d="M29.7979 26.1903L38.8331 35.2256L49.5477 24.5111L40.5125 15.4758L29.7979 26.1903Z" fill="url(#paint16_linear_67_4679)"/>
<path d="M24.59 49.4696L35.5006 38.559L26.4653 29.5237L15.5547 40.4344L24.59 49.4696Z" fill="url(#paint17_linear_67_4679)"/>
<path d="M39.953 34.9106L34.9894 39.8742C34.5836 40.28 33.9256 40.28 33.5198 39.8742L25.1501 31.5045C24.7443 31.0987 24.7443 30.4407 25.1501 30.0349L30.1137 25.0713C30.5195 24.6655 31.1775 24.6655 31.5833 25.0713L39.953 33.441C40.3588 33.8468 40.3588 34.5047 39.953 34.9106Z" fill="url(#paint18_linear_67_4679)"/>
<path d="M24.9845 28.1543C26.3566 29.5264 26.819 31.5644 26.1735 33.3942L23.688 40.4403C22.7977 42.9645 19.6642 43.8285 17.606 42.1173L15.4168 40.2972C12.8855 38.1928 12.2764 34.5523 13.985 31.7385L14.3376 31.1576C16.5481 27.5172 21.1974 26.2056 24.9845 28.1543Z" fill="url(#paint19_linear_67_4679)"/>
<path d="M24.9848 28.1544L21.434 24.6038C19.1939 22.3636 16.1556 21.1051 12.9876 21.1051H3.23859C0.711843 21.1051 -0.789805 23.9269 0.621647 26.0226L2.86494 29.306C5.87075 33.7054 11.6976 35.152 16.4119 32.6692L24.9848 28.1544Z" fill="url(#paint20_linear_67_4679)"/>
<path d="M17.8344 24.6511L11.5147 25.5178C9.87674 25.7424 8.65258 27.7051 9.38121 28.9382L10.5436 30.8673C11.3458 32.1988 12.7031 32.9547 14.2785 33.0982C15.0112 33.1649 15.752 33.0163 16.4033 32.674C16.4063 32.6725 16.4091 32.6709 16.4121 32.6693L24.9848 28.1545L22.9988 26.1685C21.7458 24.9153 19.8882 24.3696 17.8344 24.6511Z" fill="url(#paint21_linear_67_4679)"/>
<path d="M19.8784 26.6952L19.3345 26.8925C17.2776 27.6386 16.535 30.1659 17.8613 31.9062L24.9849 28.1545L23.7609 26.9305C22.9887 26.1583 21.5921 26.0736 19.8784 26.6952Z" fill="url(#paint22_linear_67_4679)"/>
<path d="M28.2332 24.9066C29.6053 26.2787 31.6432 26.7411 33.473 26.0956L40.5192 23.6101C43.0434 22.7197 43.9074 19.5863 42.1962 17.5281L40.3761 15.3389C38.2716 12.8076 34.6312 12.1985 31.8174 13.907L31.2365 14.2597C27.596 16.4702 26.2845 21.1194 28.2332 24.9066Z" fill="url(#paint23_linear_67_4679)"/>
<path d="M28.2328 24.9065L24.6823 21.3558C22.4421 19.1156 21.1836 16.0774 21.1836 12.9094V3.16034C21.1836 0.633596 24.0054 -0.868052 26.1011 0.5434L29.3845 2.78669C33.7839 5.7925 35.2305 11.6193 32.7477 16.3337L28.2328 24.9065Z" fill="url(#paint24_linear_67_4679)"/>
<path d="M24.7297 17.7561L25.5964 11.4364C25.821 9.79843 27.7837 8.57427 29.0168 9.3029L30.9459 10.4653C32.2773 11.2675 33.0332 12.6248 33.1768 14.2002C33.2434 14.9329 33.0949 15.6737 32.7526 16.325C32.751 16.328 32.7495 16.3308 32.7479 16.3338L28.2331 24.9065L26.247 22.9205C24.9939 21.6675 24.4481 19.8099 24.7297 17.7561Z" fill="url(#paint25_linear_67_4679)"/>
<path d="M26.7733 19.8002L26.9706 19.2564C27.7166 17.1994 30.244 16.4568 31.9842 17.7831L28.2326 24.9067L27.0086 23.6827C26.2363 22.9105 26.1516 21.5139 26.7733 19.8002Z" fill="url(#paint26_linear_67_4679)"/>
<path d="M29.0632 21.1843C31.2475 23.3071 31.2969 26.7992 29.1738 28.9838C27.0505 31.1685 23.5586 31.2187 21.3742 29.0958C19.1899 26.973 19.1405 23.4811 21.2638 21.2963C23.3871 19.1115 26.8789 19.0615 29.0632 21.1843Z" fill="url(#paint27_linear_67_4679)"/>
<path d="M28.427 21.8386C30.2499 23.6104 30.2913 26.5247 28.5193 28.3479C26.7472 30.1712 23.8328 30.2132 22.0099 28.4414C20.187 26.6698 20.1456 23.7553 21.9177 21.9321C23.6896 20.1087 26.604 20.067 28.427 21.8386Z" fill="url(#paint28_linear_67_4679)"/>
<path d="M23.4004 19.9321C24.1921 20.1826 24.9391 20.6162 25.575 21.2343C27.7593 23.3572 27.8087 26.8493 25.6854 29.0339C25.0672 29.67 24.3328 30.1249 23.5486 30.398C25.4758 31.008 27.6685 30.5322 29.1734 28.9837C31.2967 26.7989 31.2471 23.307 29.0628 21.1842C27.5147 19.6795 25.3096 19.267 23.4004 19.9321Z" fill="url(#paint29_linear_67_4679)"/>
</g>
<defs>
<linearGradient id="paint0_linear_67_4679" x1="67.946" y1="8.09009" x2="73.154" y2="14.5927" gradientUnits="userSpaceOnUse">
<stop stop-color="#65E0DB"/>
<stop offset="0.199" stop-color="#60DCD6"/>
<stop offset="0.4277" stop-color="#53D0C8"/>
<stop offset="0.671" stop-color="#3CBCB1"/>
<stop offset="0.9229" stop-color="#1CA191"/>
<stop offset="1" stop-color="#119786"/>
</linearGradient>
<linearGradient id="paint1_linear_67_4679" x1="71.1173" y1="13.4801" x2="74.0321" y2="20.2584" gradientUnits="userSpaceOnUse">
<stop stop-color="#65E0DB" stop-opacity="0"/>
<stop offset="0.1625" stop-color="#49C8BF" stop-opacity="0.163"/>
<stop offset="0.3526" stop-color="#31B3A6" stop-opacity="0.353"/>
<stop offset="0.5508" stop-color="#1FA394" stop-opacity="0.551"/>
<stop offset="0.7603" stop-color="#149A89" stop-opacity="0.76"/>
<stop offset="1" stop-color="#119786"/>
</linearGradient>
<linearGradient id="paint2_linear_67_4679" x1="70.4068" y1="9.98374" x2="63.5521" y2="2.99456" gradientUnits="userSpaceOnUse">
<stop stop-color="#65E0DB" stop-opacity="0"/>
<stop offset="0.1625" stop-color="#49C8BF" stop-opacity="0.163"/>
<stop offset="0.3526" stop-color="#31B3A6" stop-opacity="0.353"/>
<stop offset="0.5508" stop-color="#1FA394" stop-opacity="0.551"/>
<stop offset="0.7603" stop-color="#149A89" stop-opacity="0.76"/>
<stop offset="1" stop-color="#119786"/>
</linearGradient>
<linearGradient id="paint3_linear_67_4679" x1="46.4959" y1="34.5578" x2="61.1935" y2="52.9092" gradientUnits="userSpaceOnUse">
<stop stop-color="#FF819C"/>
<stop offset="0.2594" stop-color="#FF7E9A"/>
<stop offset="0.4757" stop-color="#FE7396"/>
<stop offset="0.6765" stop-color="#FC628E"/>
<stop offset="0.8668" stop-color="#FA4A83"/>
<stop offset="1" stop-color="#F83479"/>
</linearGradient>
<linearGradient id="paint4_linear_67_4679" x1="47.8105" y1="36.4339" x2="21.5108" y2="2.46837" gradientUnits="userSpaceOnUse">
<stop stop-color="white" stop-opacity="0"/>
<stop offset="1" stop-color="white"/>
</linearGradient>
<linearGradient id="paint5_linear_67_4679" x1="54.1954" y1="48.1097" x2="62.1908" y2="71.4993" gradientUnits="userSpaceOnUse">
<stop stop-color="#F82814" stop-opacity="0"/>
<stop offset="1" stop-color="#C0272D"/>
</linearGradient>
<linearGradient id="paint6_linear_67_4679" x1="53.4406" y1="39.9022" x2="34.095" y2="20.1773" gradientUnits="userSpaceOnUse">
<stop stop-color="#F82814" stop-opacity="0"/>
<stop offset="1" stop-color="#C0272D"/>
</linearGradient>
<linearGradient id="paint7_linear_67_4679" x1="48.4949" y1="37.7017" x2="37.6243" y2="26.8309" gradientUnits="userSpaceOnUse">
<stop stop-color="#F82814" stop-opacity="0"/>
<stop offset="1" stop-color="#C0272D"/>
</linearGradient>
<linearGradient id="paint8_linear_67_4679" x1="66.7706" y1="24.4336" x2="74.6622" y2="34.2871" gradientUnits="userSpaceOnUse">
<stop stop-color="#FFD945"/>
<stop offset="0.2567" stop-color="#FFD442"/>
<stop offset="0.5511" stop-color="#FFC63A"/>
<stop offset="0.8628" stop-color="#FFB02C"/>
<stop offset="1" stop-color="#FFA325"/>
</linearGradient>
<linearGradient id="paint9_linear_67_4679" x1="71.5766" y1="32.601" x2="75.9932" y2="42.8725" gradientUnits="userSpaceOnUse">
<stop stop-color="#F35227" stop-opacity="0"/>
<stop offset="1" stop-color="#F35227"/>
</linearGradient>
<linearGradient id="paint10_linear_67_4679" x1="70.4995" y1="27.3033" x2="60.1123" y2="16.7124" gradientUnits="userSpaceOnUse">
<stop stop-color="#F35227" stop-opacity="0"/>
<stop offset="1" stop-color="#F35227"/>
</linearGradient>
<linearGradient id="paint11_linear_67_4679" x1="42.6084" y1="51.7393" x2="56.0081" y2="83.4755" gradientUnits="userSpaceOnUse">
<stop stop-color="#F8F6FB"/>
<stop offset="1" stop-color="#EFDCFB"/>
</linearGradient>
<linearGradient id="paint12_linear_67_4679" x1="61.0338" y1="66.6424" x2="44.124" y2="63.2777" gradientUnits="userSpaceOnUse">
<stop stop-color="#EFDCFB" stop-opacity="0"/>
<stop offset="0.4856" stop-color="#BAAAD6" stop-opacity="0.486"/>
<stop offset="1" stop-color="#8679B2"/>
</linearGradient>
<linearGradient id="paint13_linear_67_4679" x1="47.9838" y1="70.8441" x2="47.9838" y2="82.0217" gradientUnits="userSpaceOnUse">
<stop stop-color="#EFDCFB" stop-opacity="0"/>
<stop offset="0.4856" stop-color="#BAAAD6" stop-opacity="0.486"/>
<stop offset="1" stop-color="#8679B2"/>
</linearGradient>
<linearGradient id="paint14_linear_67_4679" x1="38.6805" y1="59.5677" x2="57.8334" y2="69.6618" gradientUnits="userSpaceOnUse">
<stop stop-color="#65E0DB"/>
<stop offset="0.199" stop-color="#60DCD6"/>
<stop offset="0.4277" stop-color="#53D0C8"/>
<stop offset="0.671" stop-color="#3CBCB1"/>
<stop offset="0.9229" stop-color="#1CA191"/>
<stop offset="1" stop-color="#119786"/>
</linearGradient>
<linearGradient id="paint15_linear_67_4679" x1="29.4487" y1="29.7289" x2="38.7645" y2="37.1963" gradientUnits="userSpaceOnUse">
<stop stop-color="#F8F6FB"/>
<stop offset="1" stop-color="#EFDCFB"/>
</linearGradient>
<linearGradient id="paint16_linear_67_4679" x1="43.8277" y1="29.5055" x2="35.7669" y2="21.4448" gradientUnits="userSpaceOnUse">
<stop stop-color="#EFDCFB" stop-opacity="0"/>
<stop offset="0.4856" stop-color="#BAAAD6" stop-opacity="0.486"/>
<stop offset="1" stop-color="#8679B2"/>
</linearGradient>
<linearGradient id="paint17_linear_67_4679" x1="29.6824" y1="43.6515" x2="21.6217" y2="35.5908" gradientUnits="userSpaceOnUse">
<stop stop-color="#EFDCFB" stop-opacity="0"/>
<stop offset="0.4856" stop-color="#BAAAD6" stop-opacity="0.486"/>
<stop offset="1" stop-color="#8679B2"/>
</linearGradient>
<linearGradient id="paint18_linear_67_4679" x1="25.7885" y1="34.566" x2="39.7025" y2="30.2563" gradientUnits="userSpaceOnUse">
<stop stop-color="#65E0DB"/>
<stop offset="0.199" stop-color="#60DCD6"/>
<stop offset="0.4277" stop-color="#53D0C8"/>
<stop offset="0.671" stop-color="#3CBCB1"/>
<stop offset="0.9229" stop-color="#1CA191"/>
<stop offset="1" stop-color="#119786"/>
</linearGradient>
<linearGradient id="paint19_linear_67_4679" x1="17.3649" y1="34.5768" x2="25.1311" y2="35.8168" gradientUnits="userSpaceOnUse">
<stop stop-color="#65E0DB"/>
<stop offset="0.199" stop-color="#60DCD6"/>
<stop offset="0.4277" stop-color="#53D0C8"/>
<stop offset="0.671" stop-color="#3CBCB1"/>
<stop offset="0.9229" stop-color="#1CA191"/>
<stop offset="1" stop-color="#119786"/>
</linearGradient>
<linearGradient id="paint20_linear_67_4679" x1="7.42617" y1="27.4926" x2="26.0544" y2="27.4926" gradientUnits="userSpaceOnUse">
<stop stop-color="#65E0DB"/>
<stop offset="0.199" stop-color="#60DCD6"/>
<stop offset="0.4277" stop-color="#53D0C8"/>
<stop offset="0.671" stop-color="#3CBCB1"/>
<stop offset="0.9229" stop-color="#1CA191"/>
<stop offset="1" stop-color="#119786"/>
</linearGradient>
<linearGradient id="paint21_linear_67_4679" x1="15.3692" y1="31.4642" x2="21.5691" y2="18.4772" gradientUnits="userSpaceOnUse">
<stop stop-color="#65E0DB" stop-opacity="0"/>
<stop offset="0.1625" stop-color="#49C8BF" stop-opacity="0.163"/>
<stop offset="0.3526" stop-color="#31B3A6" stop-opacity="0.353"/>
<stop offset="0.5508" stop-color="#1FA394" stop-opacity="0.551"/>
<stop offset="0.7603" stop-color="#149A89" stop-opacity="0.76"/>
<stop offset="1" stop-color="#119786"/>
</linearGradient>
<linearGradient id="paint22_linear_67_4679" x1="21.1336" y1="29.4338" x2="19.5999" y2="23.3319" gradientUnits="userSpaceOnUse">
<stop stop-color="#65E0DB" stop-opacity="0"/>
<stop offset="0.1625" stop-color="#49C8BF" stop-opacity="0.163"/>
<stop offset="0.3526" stop-color="#31B3A6" stop-opacity="0.353"/>
<stop offset="0.5508" stop-color="#1FA394" stop-opacity="0.551"/>
<stop offset="0.7603" stop-color="#149A89" stop-opacity="0.76"/>
<stop offset="1" stop-color="#119786"/>
</linearGradient>
<linearGradient id="paint23_linear_67_4679" x1="34.6949" y1="17.2479" x2="35.9349" y2="25.014" gradientUnits="userSpaceOnUse">
<stop stop-color="#65E0DB"/>
<stop offset="0.199" stop-color="#60DCD6"/>
<stop offset="0.4277" stop-color="#53D0C8"/>
<stop offset="0.671" stop-color="#3CBCB1"/>
<stop offset="0.9229" stop-color="#1CA191"/>
<stop offset="1" stop-color="#119786"/>
</linearGradient>
<linearGradient id="paint24_linear_67_4679" x1="27.6104" y1="7.30879" x2="27.6104" y2="25.937" gradientUnits="userSpaceOnUse">
<stop stop-color="#65E0DB"/>
<stop offset="0.199" stop-color="#60DCD6"/>
<stop offset="0.4277" stop-color="#53D0C8"/>
<stop offset="0.671" stop-color="#3CBCB1"/>
<stop offset="0.9229" stop-color="#1CA191"/>
<stop offset="1" stop-color="#119786"/>
</linearGradient>
<linearGradient id="paint25_linear_67_4679" x1="31.5821" y1="15.2518" x2="18.595" y2="21.4517" gradientUnits="userSpaceOnUse">
<stop stop-color="#65E0DB" stop-opacity="0"/>
<stop offset="0.1625" stop-color="#49C8BF" stop-opacity="0.163"/>
<stop offset="0.3526" stop-color="#31B3A6" stop-opacity="0.353"/>
<stop offset="0.5508" stop-color="#1FA394" stop-opacity="0.551"/>
<stop offset="0.7603" stop-color="#149A89" stop-opacity="0.76"/>
<stop offset="1" stop-color="#119786"/>
</linearGradient>
<linearGradient id="paint26_linear_67_4679" x1="29.5512" y1="21.0163" x2="23.4492" y2="19.4826" gradientUnits="userSpaceOnUse">
<stop stop-color="#65E0DB" stop-opacity="0"/>
<stop offset="0.1625" stop-color="#49C8BF" stop-opacity="0.163"/>
<stop offset="0.3526" stop-color="#31B3A6" stop-opacity="0.353"/>
<stop offset="0.5508" stop-color="#1FA394" stop-opacity="0.551"/>
<stop offset="0.7603" stop-color="#149A89" stop-opacity="0.76"/>
<stop offset="1" stop-color="#119786"/>
</linearGradient>
<linearGradient id="paint27_linear_67_4679" x1="22.0402" y1="24.5085" x2="30.8087" y2="25.9775" gradientUnits="userSpaceOnUse">
<stop stop-color="#65E0DB"/>
<stop offset="0.199" stop-color="#60DCD6"/>
<stop offset="0.4277" stop-color="#53D0C8"/>
<stop offset="0.671" stop-color="#3CBCB1"/>
<stop offset="0.9229" stop-color="#1CA191"/>
<stop offset="1" stop-color="#119786"/>
</linearGradient>
<linearGradient id="paint28_linear_67_4679" x1="26.3721" y1="25.2993" x2="16.5663" y2="23.1192" gradientUnits="userSpaceOnUse">
<stop stop-color="white" stop-opacity="0"/>
<stop offset="1" stop-color="white"/>
</linearGradient>
<linearGradient id="paint29_linear_67_4679" x1="26.8309" y1="26.4287" x2="22.0055" y2="11.1654" gradientUnits="userSpaceOnUse">
<stop stop-color="#65E0DB" stop-opacity="0"/>
<stop offset="0.1625" stop-color="#49C8BF" stop-opacity="0.163"/>
<stop offset="0.3526" stop-color="#31B3A6" stop-opacity="0.353"/>
<stop offset="0.5508" stop-color="#1FA394" stop-opacity="0.551"/>
<stop offset="0.7603" stop-color="#149A89" stop-opacity="0.76"/>
<stop offset="1" stop-color="#119786"/>
</linearGradient>
<clipPath id="clip0_67_4679">
<rect width="80" height="80" fill="white"/>
</clipPath>
</defs>
</svg>
