<svg width="80" height="80" viewBox="0 0 80 80" fill="none" xmlns="http://www.w3.org/2000/svg">
<path d="M75.029 40.3517C74.5988 40.0957 74.1017 39.9747 73.6019 40.0044C73.1022 40.0341 72.6229 40.2132 72.2261 40.5184L58.0487 51.4247L42.0487 28.567C41.8182 28.2378 41.5117 27.969 41.1552 27.7834C40.7987 27.5978 40.4027 27.5009 40.0007 27.5009C39.5988 27.5009 39.2028 27.5978 38.8463 27.7834C38.4898 27.969 38.1833 28.2378 37.9528 28.567L21.9518 51.4241L7.7745 40.5178C7.37766 40.2125 6.89827 40.0333 6.39844 40.0036C5.89861 39.9739 5.40137 40.0949 4.97113 40.3511C4.54088 40.6072 4.19747 40.9866 3.98537 41.4402C3.77327 41.8938 3.70226 42.4006 3.78153 42.895L7.6045 66.788C7.53565 67.0191 7.50054 67.2589 7.50028 67.5V77.5C7.50028 78.163 7.76367 78.7989 8.23251 79.2678C8.70136 79.7366 9.33724 80 10.0003 80H70.0003C70.6633 80 71.2992 79.7366 71.7681 79.2678C72.2369 78.7989 72.5003 78.163 72.5003 77.5V67.5C72.5 67.2589 72.4649 67.0191 72.3961 66.788L76.219 42.895C76.2981 42.4007 76.227 41.894 76.0148 41.4405C75.8027 40.9871 75.4592 40.6078 75.029 40.3517Z" fill="#F0D160"/>
<path d="M75.029 40.3517C74.5988 40.0957 74.1017 39.9747 73.6019 40.0044C73.1022 40.0341 72.6229 40.2132 72.2261 40.5184L58.0487 51.4247L42.0487 28.567C41.8182 28.2378 41.5117 27.969 41.1552 27.7834C40.7987 27.5978 40.4027 27.5009 40.0007 27.5009C39.5988 27.5009 39.2028 27.5978 38.8463 27.7834C38.4898 27.969 38.1833 28.2378 37.9528 28.567L21.9518 51.4241L7.7745 40.5178C7.37766 40.2125 6.89827 40.0334 6.39844 40.0036C5.89861 39.9739 5.40137 40.0949 4.97113 40.3511C4.54088 40.6072 4.19747 40.9867 3.98537 41.4402C3.77327 41.8938 3.70226 42.4006 3.78153 42.895L7.6045 66.788C7.53565 67.0191 7.50054 67.2589 7.50028 67.5H72.5003C72.5 67.2589 72.4649 67.0191 72.3961 66.788L76.219 42.895C76.2981 42.4007 76.227 41.894 76.0148 41.4405C75.8027 40.9871 75.4592 40.6078 75.029 40.3517Z" fill="url(#paint0_linear_67_4476)"/>
<path d="M75 45C77.7614 45 80 42.7614 80 40C80 37.2386 77.7614 35 75 35C72.2386 35 70 37.2386 70 40C70 42.7614 72.2386 45 75 45Z" fill="#F0D160"/>
<path d="M5 45C7.76142 45 10 42.7614 10 40C10 37.2386 7.76142 35 5 35C2.23858 35 0 37.2386 0 40C0 42.7614 2.23858 45 5 45Z" fill="#F0D160"/>
<path d="M40 33.75C44.1421 33.75 47.5 30.3921 47.5 26.25C47.5 22.1079 44.1421 18.75 40 18.75C35.8579 18.75 32.5 22.1079 32.5 26.25C32.5 30.3921 35.8579 33.75 40 33.75Z" fill="#F0D160"/>
<path d="M55 3.75H51.25V0H46.25V3.75H42.5V8.75H46.25V12.5H51.25V8.75H55V3.75Z" fill="#7ED7DE"/>
<path d="M68.75 22.5H65V18.75H60V22.5H56.25V27.5H60V31.25H65V27.5H68.75V22.5Z" fill="#7ED7DE"/>
<path d="M26.25 17.5H22.5V13.75H17.5V17.5H13.75V22.5H17.5V26.25H22.5V22.5H26.25V17.5Z" fill="#7ED7DE"/>
<defs>
<linearGradient id="paint0_linear_67_4476" x1="16.3039" y1="76.3036" x2="63.6967" y2="28.9106" gradientUnits="userSpaceOnUse">
<stop stop-color="#FC8450"/>
<stop offset="1" stop-color="#F0D160"/>
</linearGradient>
</defs>
</svg>
