<svg width="80" height="80" viewBox="0 0 80 80" fill="none" xmlns="http://www.w3.org/2000/svg">
<g clip-path="url(#clip0_67_4503)">
<path d="M40.6735 16.6184L40.0005 17.2914L39.3276 16.6184C34.6301 11.9209 27.0138 11.9209 22.3162 16.6184C17.6187 21.3159 17.6185 28.9322 22.3162 33.6297L35.0252 46.3387C37.7729 49.0864 42.2279 49.0864 44.9755 46.3387L57.6846 33.6297C62.3821 28.9322 62.3821 21.3159 57.6846 16.6184C52.9873 11.9208 45.371 11.9208 40.6735 16.6184Z" fill="#FE646F"/>
<path d="M43.8042 47.2823C41.0784 49.0376 37.4086 48.7215 35.0252 46.3381L22.3167 33.6297C19.9683 31.2812 18.793 28.2022 18.793 25.1255C18.793 22.0465 19.9683 18.9675 22.3167 16.619C25.6464 13.2872 30.4416 12.3189 34.6261 13.7101C32.9056 14.2792 31.2898 15.2497 29.9205 16.619C27.572 18.9675 26.3988 22.0465 26.3988 25.1255C26.3988 28.2023 27.5719 31.2812 29.9205 33.6297L42.6289 46.3381C42.993 46.7023 43.3878 47.0186 43.8042 47.2823Z" fill="#FD4755"/>
<path d="M72.4068 51.4251C71.1947 51.3936 70.0946 51.8717 69.306 52.6615C68.5408 53.4254 68.0682 54.4819 68.0682 55.6494V54.0984C68.0682 51.7648 66.1761 49.8728 63.8425 49.8728C61.5089 49.8728 59.6169 51.7648 59.6169 54.0984V52.0943C59.6169 49.7608 57.726 47.8687 55.3925 47.8687C53.0579 47.8687 51.1669 49.7608 51.1669 52.0943V35.5508C51.1669 34.3834 50.6943 33.327 49.9291 32.5631C49.1639 31.7979 48.1075 31.3253 46.9415 31.3253C44.6079 31.3253 42.7158 33.2173 42.7158 35.5509V58.667H42.716L42.7161 63.27L38.2235 58.7773C36.2907 56.8445 33.1579 56.8445 31.2249 58.7773C30.2585 59.7437 29.7744 61.0114 29.7744 62.2773C29.7744 63.5434 30.2585 64.8109 31.2249 65.7773L41.7833 76.3344C44.3246 78.8756 47.6849 80.0956 51.0129 79.9942H51.0174L51.0132 79.9936H64.0054C70.9165 79.9936 76.519 74.3911 76.519 67.48V55.7179C76.5193 53.4167 74.7072 51.4851 72.4068 51.4251Z" fill="#FFDFCF"/>
<path d="M48.3784 31.5751C47.788 31.7893 47.2609 32.1282 46.827 32.5622C46.0615 33.3276 45.5885 34.3836 45.5885 35.5512V64.0282C45.0241 64.112 44.4655 64.2648 43.931 64.4845L42.7168 63.2703V35.5514C42.7168 34.3837 43.188 33.3276 43.9534 32.5623C44.717 31.7987 45.7748 31.3256 46.9407 31.3256C47.4471 31.3256 47.9295 31.4131 48.3784 31.5751Z" fill="#FFCEBF"/>
<path d="M56.83 48.1182C56.2397 48.3325 55.7125 48.6714 55.2786 49.1053C54.5131 49.8707 54.0402 50.9267 54.0402 52.0943L54.04 53.9723C54.0398 55.2107 53.0359 56.2148 51.7973 56.2148H51.168L51.1683 52.0945C51.1683 50.9268 51.6395 49.8707 52.4048 49.1054C53.1684 48.3418 54.2263 47.8687 55.3922 47.8687C55.8989 47.8686 56.3813 47.9562 56.83 48.1182Z" fill="#FFCEBF"/>
<path d="M65.2788 50.1222C64.6884 50.3364 64.1613 50.6753 63.7273 51.1092C62.9619 51.8747 62.4889 52.9306 62.4889 54.0982C62.4889 55.2672 61.5414 56.2147 60.3725 56.2147H59.6172V54.0982C59.6172 52.9306 60.0884 51.8745 60.8538 51.1092C61.6173 50.3456 62.6752 49.8725 63.8411 49.8725C64.3475 49.8726 64.8298 49.9601 65.2788 50.1222Z" fill="#FFCEBF"/>
<path d="M73.7291 51.6731C73.1388 51.8873 72.6116 52.2262 72.1777 52.6601C71.6236 53.2142 71.2229 53.9203 71.0436 54.7109C71.043 54.7139 71.0422 54.717 71.0416 54.7203C70.8579 55.5875 70.1027 56.2146 69.2163 56.2146H68.0674V55.6492C68.0674 54.4815 68.5386 53.4254 69.3039 52.6601C70.0675 51.8965 71.1254 51.4234 72.2913 51.4234C72.7979 51.4236 73.2802 51.5111 73.7291 51.6731Z" fill="#FFCEBF"/>
<path d="M50.9144 79.9957C47.618 80.0703 44.2993 78.8504 41.7832 76.3343L31.2252 65.7764C30.2586 64.8098 29.7744 63.5434 29.7744 62.277C29.7744 61.0106 30.2586 59.7423 31.2252 58.7758C32.7058 57.2951 34.8922 56.9506 36.7025 57.7403C36.1494 57.9787 35.6316 58.3251 35.1791 58.7776C34.2125 59.7442 33.7283 61.0106 33.7283 62.277C33.7283 63.5434 34.2125 64.8098 35.1791 65.7764L45.7371 76.3343C47.2363 77.8317 49.0203 79.1707 50.9144 79.9957Z" fill="#FFCEBF"/>
<path d="M67.5339 28.8627L67.5778 28.4345C67.7328 26.9247 69.0304 25.7928 70.5473 25.8442L75.2131 26.0023C76.8843 26.0589 78.1579 27.5191 77.9871 29.1825L77.8779 30.2462C77.7071 31.9097 76.1631 33.0805 74.5153 32.7961L69.9148 32.0025C68.4192 31.7444 67.3787 30.3723 67.5339 28.8627Z" fill="#FEE45A"/>
<path d="M65.7208 18.107L65.5449 17.7144C64.9243 16.3294 65.4821 14.7003 66.8215 13.9864L70.9412 11.7905C72.4168 11.0039 74.2499 11.6315 74.9336 13.1576L75.3708 14.1334C76.0546 15.6594 75.3029 17.4453 73.7337 18.023L69.3527 19.6358C67.9285 20.16 66.3415 19.492 65.7208 18.107Z" fill="#FEE45A"/>
<path d="M59.0885 9.44061L58.7397 9.18843C57.5097 8.29921 57.1783 6.60952 57.9813 5.32155L60.451 1.35999C61.3357 -0.059075 63.2371 -0.432044 64.5921 0.547644L65.4586 1.17405C66.8138 2.15374 67.0557 4.07624 65.9857 5.36108L62.9982 8.94843C62.0269 10.1147 60.3185 10.3297 59.0885 9.44061Z" fill="#FEE45A"/>
<path d="M12.4667 28.8627L12.4228 28.4345C12.2678 26.9247 10.9701 25.7928 9.45326 25.8442L4.78748 26.0023C3.11623 26.0589 1.84263 27.5191 2.01342 29.1825L2.12263 30.2462C2.29342 31.9097 3.83748 33.0805 5.48529 32.7961L10.0858 32.0025C11.5814 31.7444 12.6219 30.3723 12.4667 28.8627Z" fill="#FEE45A"/>
<path d="M14.2793 18.107L14.4552 17.7144C15.0759 16.3294 14.5181 14.7003 13.1787 13.9864L9.05899 11.7903C7.58337 11.0037 5.75024 11.6314 5.06649 13.1575L4.62931 14.1333C3.94556 15.6592 4.69728 17.4451 6.26649 18.0228L10.6474 19.6356C12.0717 20.16 13.6587 19.492 14.2793 18.107Z" fill="#FEE45A"/>
<path d="M20.9116 9.44061L21.2603 9.18843C22.4903 8.29921 22.8217 6.60952 22.0188 5.32155L19.5491 1.35999C18.6644 -0.059075 16.763 -0.432044 15.408 0.547644L14.5414 1.17405C13.1863 2.15374 12.9444 4.07624 14.0144 5.36108L17.0019 8.94843C17.9731 10.1147 19.6816 10.3297 20.9116 9.44061Z" fill="#FEE45A"/>
</g>
<defs>
<clipPath id="clip0_67_4503">
<rect width="80" height="80" fill="white"/>
</clipPath>
</defs>
</svg>
