<svg width="80" height="80" viewBox="0 0 80 80" fill="none" xmlns="http://www.w3.org/2000/svg">
<path d="M17.5 60H7.5C6.11875 60 5 61.1187 5 62.5V72.5C5 73.8813 6.11875 75 7.5 75H17.5C18.8813 75 20 73.8813 20 72.5V62.5C20 61.1187 18.8813 60 17.5 60Z" fill="#0A5078"/>
<path d="M32.5 50H22.5C21.1187 50 20 51.1187 20 52.5V72.5C20 73.8813 21.1187 75 22.5 75H32.5C33.8813 75 35 73.8813 35 72.5V52.5C35 51.1187 33.8813 50 32.5 50Z" fill="#00A0C8"/>
<path d="M18.75 60.335V72.5C18.75 73.1338 18.9863 73.7125 19.375 74.1525C19.7637 73.7125 20 73.1338 20 72.5V62.5C20 61.575 19.4975 60.7675 18.75 60.335Z" fill="#00325A"/>
<path d="M47.5 40H37.5C36.1187 40 35 41.1187 35 42.5V72.5C35 73.8812 36.1187 75 37.5 75H47.5C48.8813 75 50 73.8812 50 72.5V42.5C50 41.1187 48.8813 40 47.5 40Z" fill="#C80A50"/>
<path d="M33.75 50.335V72.5C33.75 73.1338 33.9863 73.7125 34.375 74.1525C34.7637 73.7125 35 73.1338 35 72.5V52.5C35 51.575 34.4975 50.7675 33.75 50.335Z" fill="#0082AA"/>
<path d="M62.5 27.5H52.5C51.1187 27.5 50 28.6187 50 30V72.5C50 73.8812 51.1187 75 52.5 75H62.5C63.8813 75 65 73.8812 65 72.5V30C65 28.6187 63.8813 27.5 62.5 27.5Z" fill="#FAB400"/>
<path d="M62.5 27.5H52.5C51.1187 27.5 50 28.6187 50 30V39.565C52.2738 40.645 54.8162 41.25 57.5 41.25C60.1838 41.25 62.7262 40.645 65 39.565V30C65 28.6187 63.8813 27.5 62.5 27.5Z" fill="#DC9600"/>
<path d="M48.75 40.335V72.5C48.75 73.1338 48.9863 73.7125 49.375 74.1525C49.7637 73.7125 50 73.1338 50 72.5V42.5C50 41.575 49.4975 40.7675 48.75 40.335Z" fill="#A00028"/>
<path d="M57.5 40C67.165 40 75 32.165 75 22.5C75 12.835 67.165 5 57.5 5C47.835 5 40 12.835 40 22.5C40 32.165 47.835 40 57.5 40Z" fill="#C80A50"/>
<path d="M57.5 25C58.1912 25 58.75 24.44 58.75 23.75C58.75 23.06 58.1912 22.5 57.5 22.5H40C40 23.3487 40.0612 24.1838 40.1775 25H57.5Z" fill="#A00028"/>
<path d="M57.5 10C50.5963 10 45 15.5963 45 22.5C45 29.4037 50.5963 35 57.5 35C64.4037 35 70 29.4037 70 22.5C70 15.5963 64.4037 10 57.5 10ZM57.5 30C53.3575 30 50 26.6425 50 22.5C50 18.3575 53.3575 15 57.5 15C61.6425 15 65 18.3575 65 22.5C65 26.6425 61.6425 30 57.5 30Z" fill="#F0F0F0"/>
<path d="M57.5 25C58.8807 25 60 23.8807 60 22.5C60 21.1193 58.8807 20 57.5 20C56.1193 20 55 21.1193 55 22.5C55 23.8807 56.1193 25 57.5 25Z" fill="#F0F0F0"/>
<path d="M58.75 23.75C58.75 23.06 58.1912 22.5 57.5 22.5H55C55 23.8813 56.1187 25 57.5 25C57.5225 25 57.5437 24.9988 57.565 24.9988C58.2262 24.965 58.75 24.4188 58.75 23.75Z" fill="#D2D2D2"/>
<path d="M50.4275 25C50.1512 24.2175 50 23.3762 50 22.5H45C45 23.3562 45.0863 24.1925 45.25 25H50.4275Z" fill="#D2D2D2"/>
<path d="M37.1338 20.3662L32.1338 15.3663C31.9075 15.14 31.595 15 31.25 15H21.25C20.56 15 20 15.56 20 16.25C20 16.595 20.14 16.9075 20.3662 17.1337L25.3662 22.1338C25.5925 22.36 25.905 22.5 26.25 22.5H36.25C36.94 22.5 37.5 21.94 37.5 21.25C37.5 20.905 37.36 20.5925 37.1338 20.3662Z" fill="#0A5078"/>
<path d="M37.1338 24.6338L32.1338 29.6338C31.9075 29.86 31.595 30 31.25 30H21.25C20.56 30 20 29.44 20 28.75C20 28.405 20.14 28.0925 20.3662 27.8662L25.3662 22.8662C25.5925 22.64 25.905 22.5 26.25 22.5H36.25C36.94 22.5 37.5 23.06 37.5 23.75C37.5 24.095 37.36 24.4075 37.1338 24.6338Z" fill="#0A5078"/>
<path d="M24.4824 23.75L23.2324 25H36.7674L37.1337 24.6338C37.3599 24.4075 37.4999 24.095 37.4999 23.75H24.4824Z" fill="#00325A"/>
<path d="M57.5 23.75H22.5C21.8088 23.75 21.25 23.19 21.25 22.5C21.25 21.81 21.8088 21.25 22.5 21.25H57.5C58.1912 21.25 58.75 21.81 58.75 22.5C58.75 23.19 58.1912 23.75 57.5 23.75Z" fill="#FAB400"/>
</svg>
